G04 #@! TF.FileFunction,Copper,L2,Bot,Signal*
%FSLAX46Y46*%
G04 Gerber Fmt 4.6, Leading zero omitted, Abs format (unit mm)*
G04 Created by KiCad (PCBNEW 4.0.6) date 01/19/18 19:38:46*
%MOMM*%
%LPD*%
G01*
G04 APERTURE LIST*
%ADD10C,0.020000*%
%ADD11C,1.600200*%
%ADD12C,3.980180*%
%ADD13C,2.600000*%
%ADD14C,1.699260*%
%ADD15R,1.600000X1.600000*%
%ADD16O,1.600000X1.600000*%
%ADD17R,1.700000X1.700000*%
%ADD18O,1.700000X1.700000*%
%ADD19C,0.600000*%
%ADD20C,0.250000*%
%ADD21C,0.254000*%
G04 APERTURE END LIST*
D10*
D11*
X26035000Y-33020000D03*
X28575000Y-33020000D03*
D12*
X27305000Y-27940000D03*
D13*
X29845000Y-22860000D03*
X23495000Y-25400000D03*
D14*
X22225000Y-27940000D03*
X32385000Y-27940000D03*
D15*
X22860000Y-63500000D03*
D16*
X22860000Y-55880000D03*
D15*
X27940000Y-63500000D03*
D16*
X27940000Y-55880000D03*
D11*
X42703800Y-33020000D03*
X45243800Y-33020000D03*
D12*
X43973800Y-27940000D03*
D13*
X46513800Y-22860000D03*
X40163800Y-25400000D03*
D14*
X38893800Y-27940000D03*
X49053800Y-27940000D03*
D15*
X31750000Y-44450000D03*
D16*
X39370000Y-52070000D03*
X31750000Y-46990000D03*
X39370000Y-49530000D03*
X31750000Y-49530000D03*
X39370000Y-46990000D03*
X31750000Y-52070000D03*
X39370000Y-44450000D03*
D17*
X54610000Y-55880000D03*
D18*
X54610000Y-53340000D03*
X54610000Y-50800000D03*
D17*
X16510000Y-55880000D03*
D18*
X16510000Y-53340000D03*
X16510000Y-50800000D03*
D17*
X54610000Y-30480000D03*
D18*
X54610000Y-27940000D03*
X54610000Y-25400000D03*
D17*
X16510000Y-30480000D03*
D18*
X16510000Y-27940000D03*
X16510000Y-25400000D03*
D19*
X35897500Y-61304700D03*
D20*
X31260600Y-61304700D02*
X29065300Y-63500000D01*
X35897500Y-61304700D02*
X31260600Y-61304700D01*
X27940000Y-63500000D02*
X29065300Y-63500000D01*
X21495300Y-46990000D02*
X31750000Y-46990000D01*
X17685300Y-50800000D02*
X21495300Y-46990000D01*
X16510000Y-50800000D02*
X17685300Y-50800000D01*
X52164700Y-52070000D02*
X39370000Y-52070000D01*
X53434700Y-50800000D02*
X52164700Y-52070000D01*
X54610000Y-50800000D02*
X53434700Y-50800000D01*
X22765300Y-25400000D02*
X23495000Y-25400000D01*
X17685300Y-30480000D02*
X22765300Y-25400000D01*
X16510000Y-30480000D02*
X17685300Y-30480000D01*
X40163800Y-25400000D02*
X23495000Y-25400000D01*
D21*
G36*
X46260988Y-42399991D02*
X46990000Y-42545000D01*
X51882374Y-42545000D01*
X53756745Y-42917836D01*
X55186700Y-43873301D01*
X56142164Y-45303253D01*
X56515000Y-47177626D01*
X56515000Y-59502374D01*
X56142164Y-61376747D01*
X55186700Y-62806699D01*
X53756745Y-63762164D01*
X51882374Y-64135000D01*
X29456633Y-64135000D01*
X29602701Y-64037401D01*
X31575402Y-62064700D01*
X35335037Y-62064700D01*
X35367173Y-62096892D01*
X35710701Y-62239538D01*
X36082667Y-62239862D01*
X36426443Y-62097817D01*
X36689692Y-61835027D01*
X36832338Y-61491499D01*
X36832501Y-61303599D01*
X51604699Y-61303599D01*
X51868281Y-61941515D01*
X52355918Y-62430004D01*
X52993373Y-62694699D01*
X53683599Y-62695301D01*
X54321515Y-62431719D01*
X54810004Y-61944082D01*
X55074699Y-61306627D01*
X55075301Y-60616401D01*
X54811719Y-59978485D01*
X54324082Y-59489996D01*
X53686627Y-59225301D01*
X52996401Y-59224699D01*
X52358485Y-59488281D01*
X51869996Y-59975918D01*
X51605301Y-60613373D01*
X51604699Y-61303599D01*
X36832501Y-61303599D01*
X36832662Y-61119533D01*
X36690617Y-60775757D01*
X36427827Y-60512508D01*
X36084299Y-60369862D01*
X35712333Y-60369538D01*
X35368557Y-60511583D01*
X35335382Y-60544700D01*
X31260600Y-60544700D01*
X30969761Y-60602552D01*
X30723199Y-60767299D01*
X29218909Y-62271589D01*
X29204090Y-62248559D01*
X28991890Y-62103569D01*
X28740000Y-62052560D01*
X27140000Y-62052560D01*
X26904683Y-62096838D01*
X26688559Y-62235910D01*
X26543569Y-62448110D01*
X26492560Y-62700000D01*
X26492560Y-64135000D01*
X24307440Y-64135000D01*
X24307440Y-62700000D01*
X24263162Y-62464683D01*
X24124090Y-62248559D01*
X23911890Y-62103569D01*
X23660000Y-62052560D01*
X22060000Y-62052560D01*
X21824683Y-62096838D01*
X21608559Y-62235910D01*
X21463569Y-62448110D01*
X21412560Y-62700000D01*
X21412560Y-64135000D01*
X19237626Y-64135000D01*
X17363253Y-63762164D01*
X15933301Y-62806700D01*
X14977836Y-61376745D01*
X14963287Y-61303599D01*
X16044699Y-61303599D01*
X16308281Y-61941515D01*
X16795918Y-62430004D01*
X17433373Y-62694699D01*
X18123599Y-62695301D01*
X18761515Y-62431719D01*
X19250004Y-61944082D01*
X19514699Y-61306627D01*
X19515301Y-60616401D01*
X19251719Y-59978485D01*
X18764082Y-59489996D01*
X18126627Y-59225301D01*
X17436401Y-59224699D01*
X16798485Y-59488281D01*
X16309996Y-59975918D01*
X16045301Y-60613373D01*
X16044699Y-61303599D01*
X14963287Y-61303599D01*
X14605000Y-59502374D01*
X14605000Y-50800000D01*
X14995907Y-50800000D01*
X15108946Y-51368285D01*
X15430853Y-51850054D01*
X15760026Y-52070000D01*
X15430853Y-52289946D01*
X15108946Y-52771715D01*
X14995907Y-53340000D01*
X15108946Y-53908285D01*
X15430853Y-54390054D01*
X15472452Y-54417850D01*
X15424683Y-54426838D01*
X15208559Y-54565910D01*
X15063569Y-54778110D01*
X15012560Y-55030000D01*
X15012560Y-56730000D01*
X15056838Y-56965317D01*
X15195910Y-57181441D01*
X15408110Y-57326431D01*
X15660000Y-57377440D01*
X17360000Y-57377440D01*
X17595317Y-57333162D01*
X17811441Y-57194090D01*
X17956431Y-56981890D01*
X18007440Y-56730000D01*
X18007440Y-56229041D01*
X21468086Y-56229041D01*
X21707611Y-56735134D01*
X22122577Y-57111041D01*
X22510961Y-57271904D01*
X22733000Y-57149915D01*
X22733000Y-56007000D01*
X22987000Y-56007000D01*
X22987000Y-57149915D01*
X23209039Y-57271904D01*
X23597423Y-57111041D01*
X24012389Y-56735134D01*
X24251914Y-56229041D01*
X26548086Y-56229041D01*
X26787611Y-56735134D01*
X27202577Y-57111041D01*
X27590961Y-57271904D01*
X27813000Y-57149915D01*
X27813000Y-56007000D01*
X28067000Y-56007000D01*
X28067000Y-57149915D01*
X28289039Y-57271904D01*
X28677423Y-57111041D01*
X29092389Y-56735134D01*
X29331914Y-56229041D01*
X29297343Y-56165750D01*
X53125000Y-56165750D01*
X53125000Y-56856310D01*
X53221673Y-57089699D01*
X53400302Y-57268327D01*
X53633691Y-57365000D01*
X54324250Y-57365000D01*
X54483000Y-57206250D01*
X54483000Y-56007000D01*
X54737000Y-56007000D01*
X54737000Y-57206250D01*
X54895750Y-57365000D01*
X55586309Y-57365000D01*
X55819698Y-57268327D01*
X55998327Y-57089699D01*
X56095000Y-56856310D01*
X56095000Y-56165750D01*
X55936250Y-56007000D01*
X54737000Y-56007000D01*
X54483000Y-56007000D01*
X53283750Y-56007000D01*
X53125000Y-56165750D01*
X29297343Y-56165750D01*
X29210629Y-56007000D01*
X28067000Y-56007000D01*
X27813000Y-56007000D01*
X26669371Y-56007000D01*
X26548086Y-56229041D01*
X24251914Y-56229041D01*
X24130629Y-56007000D01*
X22987000Y-56007000D01*
X22733000Y-56007000D01*
X21589371Y-56007000D01*
X21468086Y-56229041D01*
X18007440Y-56229041D01*
X18007440Y-55530959D01*
X21468086Y-55530959D01*
X21589371Y-55753000D01*
X22733000Y-55753000D01*
X22733000Y-54610085D01*
X22987000Y-54610085D01*
X22987000Y-55753000D01*
X24130629Y-55753000D01*
X24251914Y-55530959D01*
X26548086Y-55530959D01*
X26669371Y-55753000D01*
X27813000Y-55753000D01*
X27813000Y-54610085D01*
X28067000Y-54610085D01*
X28067000Y-55753000D01*
X29210629Y-55753000D01*
X29331914Y-55530959D01*
X29092389Y-55024866D01*
X28677423Y-54648959D01*
X28289039Y-54488096D01*
X28067000Y-54610085D01*
X27813000Y-54610085D01*
X27590961Y-54488096D01*
X27202577Y-54648959D01*
X26787611Y-55024866D01*
X26548086Y-55530959D01*
X24251914Y-55530959D01*
X24012389Y-55024866D01*
X23597423Y-54648959D01*
X23209039Y-54488096D01*
X22987000Y-54610085D01*
X22733000Y-54610085D01*
X22510961Y-54488096D01*
X22122577Y-54648959D01*
X21707611Y-55024866D01*
X21468086Y-55530959D01*
X18007440Y-55530959D01*
X18007440Y-55030000D01*
X17963162Y-54794683D01*
X17824090Y-54578559D01*
X17611890Y-54433569D01*
X17544459Y-54419914D01*
X17589147Y-54390054D01*
X17911054Y-53908285D01*
X18024093Y-53340000D01*
X17911054Y-52771715D01*
X17675404Y-52419039D01*
X30358096Y-52419039D01*
X30518959Y-52807423D01*
X30894866Y-53222389D01*
X31400959Y-53461914D01*
X31623000Y-53340629D01*
X31623000Y-52197000D01*
X31877000Y-52197000D01*
X31877000Y-53340629D01*
X32099041Y-53461914D01*
X32605134Y-53222389D01*
X32981041Y-52807423D01*
X33141904Y-52419039D01*
X33019915Y-52197000D01*
X31877000Y-52197000D01*
X31623000Y-52197000D01*
X30480085Y-52197000D01*
X30358096Y-52419039D01*
X17675404Y-52419039D01*
X17589147Y-52289946D01*
X17259974Y-52070000D01*
X17589147Y-51850054D01*
X17797923Y-51537598D01*
X17976139Y-51502148D01*
X18222701Y-51337401D01*
X21810102Y-47750000D01*
X30537005Y-47750000D01*
X30707189Y-48004698D01*
X31089275Y-48260000D01*
X30707189Y-48515302D01*
X30396120Y-48980849D01*
X30286887Y-49530000D01*
X30396120Y-50079151D01*
X30707189Y-50544698D01*
X31111703Y-50814986D01*
X30894866Y-50917611D01*
X30518959Y-51332577D01*
X30358096Y-51720961D01*
X30480085Y-51943000D01*
X31623000Y-51943000D01*
X31623000Y-51923000D01*
X31877000Y-51923000D01*
X31877000Y-51943000D01*
X33019915Y-51943000D01*
X33141904Y-51720961D01*
X32981041Y-51332577D01*
X32605134Y-50917611D01*
X32388297Y-50814986D01*
X32792811Y-50544698D01*
X33103880Y-50079151D01*
X33213113Y-49530000D01*
X33103880Y-48980849D01*
X32792811Y-48515302D01*
X32410725Y-48260000D01*
X32792811Y-48004698D01*
X33103880Y-47539151D01*
X33213113Y-46990000D01*
X33103880Y-46440849D01*
X32792811Y-45975302D01*
X32648535Y-45878899D01*
X32785317Y-45853162D01*
X33001441Y-45714090D01*
X33146431Y-45501890D01*
X33197440Y-45250000D01*
X33197440Y-44450000D01*
X37906887Y-44450000D01*
X38016120Y-44999151D01*
X38327189Y-45464698D01*
X38709275Y-45720000D01*
X38327189Y-45975302D01*
X38016120Y-46440849D01*
X37906887Y-46990000D01*
X38016120Y-47539151D01*
X38327189Y-48004698D01*
X38709275Y-48260000D01*
X38327189Y-48515302D01*
X38016120Y-48980849D01*
X37906887Y-49530000D01*
X38016120Y-50079151D01*
X38327189Y-50544698D01*
X38709275Y-50800000D01*
X38327189Y-51055302D01*
X38016120Y-51520849D01*
X37906887Y-52070000D01*
X38016120Y-52619151D01*
X38327189Y-53084698D01*
X38792736Y-53395767D01*
X39341887Y-53505000D01*
X39398113Y-53505000D01*
X39947264Y-53395767D01*
X40412811Y-53084698D01*
X40582995Y-52830000D01*
X52164700Y-52830000D01*
X52455539Y-52772148D01*
X52702101Y-52607401D01*
X53502252Y-51807250D01*
X53530853Y-51850054D01*
X53860026Y-52070000D01*
X53530853Y-52289946D01*
X53208946Y-52771715D01*
X53095907Y-53340000D01*
X53208946Y-53908285D01*
X53530853Y-54390054D01*
X53574777Y-54419403D01*
X53400302Y-54491673D01*
X53221673Y-54670301D01*
X53125000Y-54903690D01*
X53125000Y-55594250D01*
X53283750Y-55753000D01*
X54483000Y-55753000D01*
X54483000Y-55733000D01*
X54737000Y-55733000D01*
X54737000Y-55753000D01*
X55936250Y-55753000D01*
X56095000Y-55594250D01*
X56095000Y-54903690D01*
X55998327Y-54670301D01*
X55819698Y-54491673D01*
X55645223Y-54419403D01*
X55689147Y-54390054D01*
X56011054Y-53908285D01*
X56124093Y-53340000D01*
X56011054Y-52771715D01*
X55689147Y-52289946D01*
X55359974Y-52070000D01*
X55689147Y-51850054D01*
X56011054Y-51368285D01*
X56124093Y-50800000D01*
X56011054Y-50231715D01*
X55689147Y-49749946D01*
X55207378Y-49428039D01*
X54639093Y-49315000D01*
X54580907Y-49315000D01*
X54012622Y-49428039D01*
X53530853Y-49749946D01*
X53322077Y-50062402D01*
X53143860Y-50097852D01*
X52897299Y-50262599D01*
X51849898Y-51310000D01*
X40582995Y-51310000D01*
X40412811Y-51055302D01*
X40030725Y-50800000D01*
X40412811Y-50544698D01*
X40723880Y-50079151D01*
X40833113Y-49530000D01*
X40723880Y-48980849D01*
X40412811Y-48515302D01*
X40030725Y-48260000D01*
X40412811Y-48004698D01*
X40723880Y-47539151D01*
X40833113Y-46990000D01*
X40723880Y-46440849D01*
X40471810Y-46063599D01*
X51604699Y-46063599D01*
X51868281Y-46701515D01*
X52355918Y-47190004D01*
X52993373Y-47454699D01*
X53683599Y-47455301D01*
X54321515Y-47191719D01*
X54810004Y-46704082D01*
X55074699Y-46066627D01*
X55075301Y-45376401D01*
X54811719Y-44738485D01*
X54324082Y-44249996D01*
X53686627Y-43985301D01*
X52996401Y-43984699D01*
X52358485Y-44248281D01*
X51869996Y-44735918D01*
X51605301Y-45373373D01*
X51604699Y-46063599D01*
X40471810Y-46063599D01*
X40412811Y-45975302D01*
X40030725Y-45720000D01*
X40412811Y-45464698D01*
X40723880Y-44999151D01*
X40833113Y-44450000D01*
X40723880Y-43900849D01*
X40412811Y-43435302D01*
X39947264Y-43124233D01*
X39398113Y-43015000D01*
X39341887Y-43015000D01*
X38792736Y-43124233D01*
X38327189Y-43435302D01*
X38016120Y-43900849D01*
X37906887Y-44450000D01*
X33197440Y-44450000D01*
X33197440Y-43650000D01*
X33153162Y-43414683D01*
X33014090Y-43198559D01*
X32801890Y-43053569D01*
X32550000Y-43002560D01*
X30950000Y-43002560D01*
X30714683Y-43046838D01*
X30498559Y-43185910D01*
X30353569Y-43398110D01*
X30302560Y-43650000D01*
X30302560Y-45250000D01*
X30346838Y-45485317D01*
X30485910Y-45701441D01*
X30698110Y-45846431D01*
X30853089Y-45877815D01*
X30707189Y-45975302D01*
X30537005Y-46230000D01*
X21495300Y-46230000D01*
X21204461Y-46287852D01*
X20957899Y-46452599D01*
X17617748Y-49792750D01*
X17589147Y-49749946D01*
X17107378Y-49428039D01*
X16539093Y-49315000D01*
X16480907Y-49315000D01*
X15912622Y-49428039D01*
X15430853Y-49749946D01*
X15108946Y-50231715D01*
X14995907Y-50800000D01*
X14605000Y-50800000D01*
X14605000Y-47177626D01*
X14826594Y-46063599D01*
X16044699Y-46063599D01*
X16308281Y-46701515D01*
X16795918Y-47190004D01*
X17433373Y-47454699D01*
X18123599Y-47455301D01*
X18761515Y-47191719D01*
X19250004Y-46704082D01*
X19514699Y-46066627D01*
X19515301Y-45376401D01*
X19251719Y-44738485D01*
X18764082Y-44249996D01*
X18126627Y-43985301D01*
X17436401Y-43984699D01*
X16798485Y-44248281D01*
X16309996Y-44735918D01*
X16045301Y-45373373D01*
X16044699Y-46063599D01*
X14826594Y-46063599D01*
X14977836Y-45303255D01*
X15933301Y-43873300D01*
X17363253Y-42917836D01*
X19237626Y-42545000D01*
X24130000Y-42545000D01*
X24859012Y-42399991D01*
X25114574Y-42229229D01*
X25119296Y-42240657D01*
X25368033Y-42489829D01*
X25693190Y-42624846D01*
X26045265Y-42625153D01*
X26270151Y-42532232D01*
X26493190Y-42624846D01*
X26845265Y-42625153D01*
X27070151Y-42532232D01*
X27293190Y-42624846D01*
X27645265Y-42625153D01*
X27970657Y-42490704D01*
X28219829Y-42241967D01*
X28225185Y-42229068D01*
X28480988Y-42399991D01*
X29210000Y-42545000D01*
X41910000Y-42545000D01*
X42639012Y-42399991D01*
X42894574Y-42229229D01*
X42899296Y-42240657D01*
X43148033Y-42489829D01*
X43473190Y-42624846D01*
X43825265Y-42625153D01*
X44050151Y-42532232D01*
X44273190Y-42624846D01*
X44625265Y-42625153D01*
X44850151Y-42532232D01*
X45073190Y-42624846D01*
X45425265Y-42625153D01*
X45750657Y-42490704D01*
X45999829Y-42241967D01*
X46005185Y-42229068D01*
X46260988Y-42399991D01*
X46260988Y-42399991D01*
G37*
X46260988Y-42399991D02*
X46990000Y-42545000D01*
X51882374Y-42545000D01*
X53756745Y-42917836D01*
X55186700Y-43873301D01*
X56142164Y-45303253D01*
X56515000Y-47177626D01*
X56515000Y-59502374D01*
X56142164Y-61376747D01*
X55186700Y-62806699D01*
X53756745Y-63762164D01*
X51882374Y-64135000D01*
X29456633Y-64135000D01*
X29602701Y-64037401D01*
X31575402Y-62064700D01*
X35335037Y-62064700D01*
X35367173Y-62096892D01*
X35710701Y-62239538D01*
X36082667Y-62239862D01*
X36426443Y-62097817D01*
X36689692Y-61835027D01*
X36832338Y-61491499D01*
X36832501Y-61303599D01*
X51604699Y-61303599D01*
X51868281Y-61941515D01*
X52355918Y-62430004D01*
X52993373Y-62694699D01*
X53683599Y-62695301D01*
X54321515Y-62431719D01*
X54810004Y-61944082D01*
X55074699Y-61306627D01*
X55075301Y-60616401D01*
X54811719Y-59978485D01*
X54324082Y-59489996D01*
X53686627Y-59225301D01*
X52996401Y-59224699D01*
X52358485Y-59488281D01*
X51869996Y-59975918D01*
X51605301Y-60613373D01*
X51604699Y-61303599D01*
X36832501Y-61303599D01*
X36832662Y-61119533D01*
X36690617Y-60775757D01*
X36427827Y-60512508D01*
X36084299Y-60369862D01*
X35712333Y-60369538D01*
X35368557Y-60511583D01*
X35335382Y-60544700D01*
X31260600Y-60544700D01*
X30969761Y-60602552D01*
X30723199Y-60767299D01*
X29218909Y-62271589D01*
X29204090Y-62248559D01*
X28991890Y-62103569D01*
X28740000Y-62052560D01*
X27140000Y-62052560D01*
X26904683Y-62096838D01*
X26688559Y-62235910D01*
X26543569Y-62448110D01*
X26492560Y-62700000D01*
X26492560Y-64135000D01*
X24307440Y-64135000D01*
X24307440Y-62700000D01*
X24263162Y-62464683D01*
X24124090Y-62248559D01*
X23911890Y-62103569D01*
X23660000Y-62052560D01*
X22060000Y-62052560D01*
X21824683Y-62096838D01*
X21608559Y-62235910D01*
X21463569Y-62448110D01*
X21412560Y-62700000D01*
X21412560Y-64135000D01*
X19237626Y-64135000D01*
X17363253Y-63762164D01*
X15933301Y-62806700D01*
X14977836Y-61376745D01*
X14963287Y-61303599D01*
X16044699Y-61303599D01*
X16308281Y-61941515D01*
X16795918Y-62430004D01*
X17433373Y-62694699D01*
X18123599Y-62695301D01*
X18761515Y-62431719D01*
X19250004Y-61944082D01*
X19514699Y-61306627D01*
X19515301Y-60616401D01*
X19251719Y-59978485D01*
X18764082Y-59489996D01*
X18126627Y-59225301D01*
X17436401Y-59224699D01*
X16798485Y-59488281D01*
X16309996Y-59975918D01*
X16045301Y-60613373D01*
X16044699Y-61303599D01*
X14963287Y-61303599D01*
X14605000Y-59502374D01*
X14605000Y-50800000D01*
X14995907Y-50800000D01*
X15108946Y-51368285D01*
X15430853Y-51850054D01*
X15760026Y-52070000D01*
X15430853Y-52289946D01*
X15108946Y-52771715D01*
X14995907Y-53340000D01*
X15108946Y-53908285D01*
X15430853Y-54390054D01*
X15472452Y-54417850D01*
X15424683Y-54426838D01*
X15208559Y-54565910D01*
X15063569Y-54778110D01*
X15012560Y-55030000D01*
X15012560Y-56730000D01*
X15056838Y-56965317D01*
X15195910Y-57181441D01*
X15408110Y-57326431D01*
X15660000Y-57377440D01*
X17360000Y-57377440D01*
X17595317Y-57333162D01*
X17811441Y-57194090D01*
X17956431Y-56981890D01*
X18007440Y-56730000D01*
X18007440Y-56229041D01*
X21468086Y-56229041D01*
X21707611Y-56735134D01*
X22122577Y-57111041D01*
X22510961Y-57271904D01*
X22733000Y-57149915D01*
X22733000Y-56007000D01*
X22987000Y-56007000D01*
X22987000Y-57149915D01*
X23209039Y-57271904D01*
X23597423Y-57111041D01*
X24012389Y-56735134D01*
X24251914Y-56229041D01*
X26548086Y-56229041D01*
X26787611Y-56735134D01*
X27202577Y-57111041D01*
X27590961Y-57271904D01*
X27813000Y-57149915D01*
X27813000Y-56007000D01*
X28067000Y-56007000D01*
X28067000Y-57149915D01*
X28289039Y-57271904D01*
X28677423Y-57111041D01*
X29092389Y-56735134D01*
X29331914Y-56229041D01*
X29297343Y-56165750D01*
X53125000Y-56165750D01*
X53125000Y-56856310D01*
X53221673Y-57089699D01*
X53400302Y-57268327D01*
X53633691Y-57365000D01*
X54324250Y-57365000D01*
X54483000Y-57206250D01*
X54483000Y-56007000D01*
X54737000Y-56007000D01*
X54737000Y-57206250D01*
X54895750Y-57365000D01*
X55586309Y-57365000D01*
X55819698Y-57268327D01*
X55998327Y-57089699D01*
X56095000Y-56856310D01*
X56095000Y-56165750D01*
X55936250Y-56007000D01*
X54737000Y-56007000D01*
X54483000Y-56007000D01*
X53283750Y-56007000D01*
X53125000Y-56165750D01*
X29297343Y-56165750D01*
X29210629Y-56007000D01*
X28067000Y-56007000D01*
X27813000Y-56007000D01*
X26669371Y-56007000D01*
X26548086Y-56229041D01*
X24251914Y-56229041D01*
X24130629Y-56007000D01*
X22987000Y-56007000D01*
X22733000Y-56007000D01*
X21589371Y-56007000D01*
X21468086Y-56229041D01*
X18007440Y-56229041D01*
X18007440Y-55530959D01*
X21468086Y-55530959D01*
X21589371Y-55753000D01*
X22733000Y-55753000D01*
X22733000Y-54610085D01*
X22987000Y-54610085D01*
X22987000Y-55753000D01*
X24130629Y-55753000D01*
X24251914Y-55530959D01*
X26548086Y-55530959D01*
X26669371Y-55753000D01*
X27813000Y-55753000D01*
X27813000Y-54610085D01*
X28067000Y-54610085D01*
X28067000Y-55753000D01*
X29210629Y-55753000D01*
X29331914Y-55530959D01*
X29092389Y-55024866D01*
X28677423Y-54648959D01*
X28289039Y-54488096D01*
X28067000Y-54610085D01*
X27813000Y-54610085D01*
X27590961Y-54488096D01*
X27202577Y-54648959D01*
X26787611Y-55024866D01*
X26548086Y-55530959D01*
X24251914Y-55530959D01*
X24012389Y-55024866D01*
X23597423Y-54648959D01*
X23209039Y-54488096D01*
X22987000Y-54610085D01*
X22733000Y-54610085D01*
X22510961Y-54488096D01*
X22122577Y-54648959D01*
X21707611Y-55024866D01*
X21468086Y-55530959D01*
X18007440Y-55530959D01*
X18007440Y-55030000D01*
X17963162Y-54794683D01*
X17824090Y-54578559D01*
X17611890Y-54433569D01*
X17544459Y-54419914D01*
X17589147Y-54390054D01*
X17911054Y-53908285D01*
X18024093Y-53340000D01*
X17911054Y-52771715D01*
X17675404Y-52419039D01*
X30358096Y-52419039D01*
X30518959Y-52807423D01*
X30894866Y-53222389D01*
X31400959Y-53461914D01*
X31623000Y-53340629D01*
X31623000Y-52197000D01*
X31877000Y-52197000D01*
X31877000Y-53340629D01*
X32099041Y-53461914D01*
X32605134Y-53222389D01*
X32981041Y-52807423D01*
X33141904Y-52419039D01*
X33019915Y-52197000D01*
X31877000Y-52197000D01*
X31623000Y-52197000D01*
X30480085Y-52197000D01*
X30358096Y-52419039D01*
X17675404Y-52419039D01*
X17589147Y-52289946D01*
X17259974Y-52070000D01*
X17589147Y-51850054D01*
X17797923Y-51537598D01*
X17976139Y-51502148D01*
X18222701Y-51337401D01*
X21810102Y-47750000D01*
X30537005Y-47750000D01*
X30707189Y-48004698D01*
X31089275Y-48260000D01*
X30707189Y-48515302D01*
X30396120Y-48980849D01*
X30286887Y-49530000D01*
X30396120Y-50079151D01*
X30707189Y-50544698D01*
X31111703Y-50814986D01*
X30894866Y-50917611D01*
X30518959Y-51332577D01*
X30358096Y-51720961D01*
X30480085Y-51943000D01*
X31623000Y-51943000D01*
X31623000Y-51923000D01*
X31877000Y-51923000D01*
X31877000Y-51943000D01*
X33019915Y-51943000D01*
X33141904Y-51720961D01*
X32981041Y-51332577D01*
X32605134Y-50917611D01*
X32388297Y-50814986D01*
X32792811Y-50544698D01*
X33103880Y-50079151D01*
X33213113Y-49530000D01*
X33103880Y-48980849D01*
X32792811Y-48515302D01*
X32410725Y-48260000D01*
X32792811Y-48004698D01*
X33103880Y-47539151D01*
X33213113Y-46990000D01*
X33103880Y-46440849D01*
X32792811Y-45975302D01*
X32648535Y-45878899D01*
X32785317Y-45853162D01*
X33001441Y-45714090D01*
X33146431Y-45501890D01*
X33197440Y-45250000D01*
X33197440Y-44450000D01*
X37906887Y-44450000D01*
X38016120Y-44999151D01*
X38327189Y-45464698D01*
X38709275Y-45720000D01*
X38327189Y-45975302D01*
X38016120Y-46440849D01*
X37906887Y-46990000D01*
X38016120Y-47539151D01*
X38327189Y-48004698D01*
X38709275Y-48260000D01*
X38327189Y-48515302D01*
X38016120Y-48980849D01*
X37906887Y-49530000D01*
X38016120Y-50079151D01*
X38327189Y-50544698D01*
X38709275Y-50800000D01*
X38327189Y-51055302D01*
X38016120Y-51520849D01*
X37906887Y-52070000D01*
X38016120Y-52619151D01*
X38327189Y-53084698D01*
X38792736Y-53395767D01*
X39341887Y-53505000D01*
X39398113Y-53505000D01*
X39947264Y-53395767D01*
X40412811Y-53084698D01*
X40582995Y-52830000D01*
X52164700Y-52830000D01*
X52455539Y-52772148D01*
X52702101Y-52607401D01*
X53502252Y-51807250D01*
X53530853Y-51850054D01*
X53860026Y-52070000D01*
X53530853Y-52289946D01*
X53208946Y-52771715D01*
X53095907Y-53340000D01*
X53208946Y-53908285D01*
X53530853Y-54390054D01*
X53574777Y-54419403D01*
X53400302Y-54491673D01*
X53221673Y-54670301D01*
X53125000Y-54903690D01*
X53125000Y-55594250D01*
X53283750Y-55753000D01*
X54483000Y-55753000D01*
X54483000Y-55733000D01*
X54737000Y-55733000D01*
X54737000Y-55753000D01*
X55936250Y-55753000D01*
X56095000Y-55594250D01*
X56095000Y-54903690D01*
X55998327Y-54670301D01*
X55819698Y-54491673D01*
X55645223Y-54419403D01*
X55689147Y-54390054D01*
X56011054Y-53908285D01*
X56124093Y-53340000D01*
X56011054Y-52771715D01*
X55689147Y-52289946D01*
X55359974Y-52070000D01*
X55689147Y-51850054D01*
X56011054Y-51368285D01*
X56124093Y-50800000D01*
X56011054Y-50231715D01*
X55689147Y-49749946D01*
X55207378Y-49428039D01*
X54639093Y-49315000D01*
X54580907Y-49315000D01*
X54012622Y-49428039D01*
X53530853Y-49749946D01*
X53322077Y-50062402D01*
X53143860Y-50097852D01*
X52897299Y-50262599D01*
X51849898Y-51310000D01*
X40582995Y-51310000D01*
X40412811Y-51055302D01*
X40030725Y-50800000D01*
X40412811Y-50544698D01*
X40723880Y-50079151D01*
X40833113Y-49530000D01*
X40723880Y-48980849D01*
X40412811Y-48515302D01*
X40030725Y-48260000D01*
X40412811Y-48004698D01*
X40723880Y-47539151D01*
X40833113Y-46990000D01*
X40723880Y-46440849D01*
X40471810Y-46063599D01*
X51604699Y-46063599D01*
X51868281Y-46701515D01*
X52355918Y-47190004D01*
X52993373Y-47454699D01*
X53683599Y-47455301D01*
X54321515Y-47191719D01*
X54810004Y-46704082D01*
X55074699Y-46066627D01*
X55075301Y-45376401D01*
X54811719Y-44738485D01*
X54324082Y-44249996D01*
X53686627Y-43985301D01*
X52996401Y-43984699D01*
X52358485Y-44248281D01*
X51869996Y-44735918D01*
X51605301Y-45373373D01*
X51604699Y-46063599D01*
X40471810Y-46063599D01*
X40412811Y-45975302D01*
X40030725Y-45720000D01*
X40412811Y-45464698D01*
X40723880Y-44999151D01*
X40833113Y-44450000D01*
X40723880Y-43900849D01*
X40412811Y-43435302D01*
X39947264Y-43124233D01*
X39398113Y-43015000D01*
X39341887Y-43015000D01*
X38792736Y-43124233D01*
X38327189Y-43435302D01*
X38016120Y-43900849D01*
X37906887Y-44450000D01*
X33197440Y-44450000D01*
X33197440Y-43650000D01*
X33153162Y-43414683D01*
X33014090Y-43198559D01*
X32801890Y-43053569D01*
X32550000Y-43002560D01*
X30950000Y-43002560D01*
X30714683Y-43046838D01*
X30498559Y-43185910D01*
X30353569Y-43398110D01*
X30302560Y-43650000D01*
X30302560Y-45250000D01*
X30346838Y-45485317D01*
X30485910Y-45701441D01*
X30698110Y-45846431D01*
X30853089Y-45877815D01*
X30707189Y-45975302D01*
X30537005Y-46230000D01*
X21495300Y-46230000D01*
X21204461Y-46287852D01*
X20957899Y-46452599D01*
X17617748Y-49792750D01*
X17589147Y-49749946D01*
X17107378Y-49428039D01*
X16539093Y-49315000D01*
X16480907Y-49315000D01*
X15912622Y-49428039D01*
X15430853Y-49749946D01*
X15108946Y-50231715D01*
X14995907Y-50800000D01*
X14605000Y-50800000D01*
X14605000Y-47177626D01*
X14826594Y-46063599D01*
X16044699Y-46063599D01*
X16308281Y-46701515D01*
X16795918Y-47190004D01*
X17433373Y-47454699D01*
X18123599Y-47455301D01*
X18761515Y-47191719D01*
X19250004Y-46704082D01*
X19514699Y-46066627D01*
X19515301Y-45376401D01*
X19251719Y-44738485D01*
X18764082Y-44249996D01*
X18126627Y-43985301D01*
X17436401Y-43984699D01*
X16798485Y-44248281D01*
X16309996Y-44735918D01*
X16045301Y-45373373D01*
X16044699Y-46063599D01*
X14826594Y-46063599D01*
X14977836Y-45303255D01*
X15933301Y-43873300D01*
X17363253Y-42917836D01*
X19237626Y-42545000D01*
X24130000Y-42545000D01*
X24859012Y-42399991D01*
X25114574Y-42229229D01*
X25119296Y-42240657D01*
X25368033Y-42489829D01*
X25693190Y-42624846D01*
X26045265Y-42625153D01*
X26270151Y-42532232D01*
X26493190Y-42624846D01*
X26845265Y-42625153D01*
X27070151Y-42532232D01*
X27293190Y-42624846D01*
X27645265Y-42625153D01*
X27970657Y-42490704D01*
X28219829Y-42241967D01*
X28225185Y-42229068D01*
X28480988Y-42399991D01*
X29210000Y-42545000D01*
X41910000Y-42545000D01*
X42639012Y-42399991D01*
X42894574Y-42229229D01*
X42899296Y-42240657D01*
X43148033Y-42489829D01*
X43473190Y-42624846D01*
X43825265Y-42625153D01*
X44050151Y-42532232D01*
X44273190Y-42624846D01*
X44625265Y-42625153D01*
X44850151Y-42532232D01*
X45073190Y-42624846D01*
X45425265Y-42625153D01*
X45750657Y-42490704D01*
X45999829Y-42241967D01*
X46005185Y-42229068D01*
X46260988Y-42399991D01*
G36*
X53756745Y-17517836D02*
X55186700Y-18473301D01*
X56142164Y-19903253D01*
X56515000Y-21777626D01*
X56515000Y-34102374D01*
X56142164Y-35976747D01*
X55186700Y-37406699D01*
X53756745Y-38362164D01*
X51882374Y-38735000D01*
X46990000Y-38735000D01*
X46260988Y-38880009D01*
X46005426Y-39050771D01*
X46000704Y-39039343D01*
X45751967Y-38790171D01*
X45426810Y-38655154D01*
X45074735Y-38654847D01*
X44849849Y-38747768D01*
X44626810Y-38655154D01*
X44274735Y-38654847D01*
X44049849Y-38747768D01*
X43826810Y-38655154D01*
X43474735Y-38654847D01*
X43149343Y-38789296D01*
X42900171Y-39038033D01*
X42894815Y-39050932D01*
X42639012Y-38880009D01*
X41910000Y-38735000D01*
X29210000Y-38735000D01*
X28480988Y-38880009D01*
X28225426Y-39050771D01*
X28220704Y-39039343D01*
X27971967Y-38790171D01*
X27646810Y-38655154D01*
X27294735Y-38654847D01*
X27069849Y-38747768D01*
X26846810Y-38655154D01*
X26494735Y-38654847D01*
X26269849Y-38747768D01*
X26046810Y-38655154D01*
X25694735Y-38654847D01*
X25369343Y-38789296D01*
X25120171Y-39038033D01*
X25114815Y-39050932D01*
X24859012Y-38880009D01*
X24130000Y-38735000D01*
X19237626Y-38735000D01*
X17363253Y-38362164D01*
X15933301Y-37406700D01*
X14977836Y-35976745D01*
X14605000Y-34102374D01*
X14605000Y-34027817D01*
X25206788Y-34027817D01*
X25280935Y-34273947D01*
X25818200Y-34467064D01*
X26388470Y-34439879D01*
X26789065Y-34273947D01*
X26863212Y-34027817D01*
X26035000Y-33199605D01*
X25206788Y-34027817D01*
X14605000Y-34027817D01*
X14605000Y-32803200D01*
X24587936Y-32803200D01*
X24615121Y-33373470D01*
X24781053Y-33774065D01*
X25027183Y-33848212D01*
X25855395Y-33020000D01*
X26214605Y-33020000D01*
X27042817Y-33848212D01*
X27288947Y-33774065D01*
X27309810Y-33716022D01*
X27357672Y-33831857D01*
X27761020Y-34235909D01*
X28288289Y-34454850D01*
X28859207Y-34455348D01*
X29386857Y-34237328D01*
X29596733Y-34027817D01*
X41875588Y-34027817D01*
X41949735Y-34273947D01*
X42487000Y-34467064D01*
X43057270Y-34439879D01*
X43457865Y-34273947D01*
X43532012Y-34027817D01*
X42703800Y-33199605D01*
X41875588Y-34027817D01*
X29596733Y-34027817D01*
X29790909Y-33833980D01*
X30009850Y-33306711D01*
X30010289Y-32803200D01*
X41256736Y-32803200D01*
X41283921Y-33373470D01*
X41449853Y-33774065D01*
X41695983Y-33848212D01*
X42524195Y-33020000D01*
X42883405Y-33020000D01*
X43711617Y-33848212D01*
X43957747Y-33774065D01*
X43978610Y-33716022D01*
X44026472Y-33831857D01*
X44429820Y-34235909D01*
X44957089Y-34454850D01*
X45528007Y-34455348D01*
X46055657Y-34237328D01*
X46459709Y-33833980D01*
X46678650Y-33306711D01*
X46679148Y-32735793D01*
X46461128Y-32208143D01*
X46057780Y-31804091D01*
X45530511Y-31585150D01*
X44959593Y-31584652D01*
X44431943Y-31802672D01*
X44027891Y-32206020D01*
X43980352Y-32320507D01*
X43957747Y-32265935D01*
X43711617Y-32191788D01*
X42883405Y-33020000D01*
X42524195Y-33020000D01*
X41695983Y-32191788D01*
X41449853Y-32265935D01*
X41256736Y-32803200D01*
X30010289Y-32803200D01*
X30010348Y-32735793D01*
X29792328Y-32208143D01*
X29596710Y-32012183D01*
X41875588Y-32012183D01*
X42703800Y-32840395D01*
X43532012Y-32012183D01*
X43457865Y-31766053D01*
X42920600Y-31572936D01*
X42350330Y-31600121D01*
X41949735Y-31766053D01*
X41875588Y-32012183D01*
X29596710Y-32012183D01*
X29388980Y-31804091D01*
X28861711Y-31585150D01*
X28290793Y-31584652D01*
X27763143Y-31802672D01*
X27359091Y-32206020D01*
X27311552Y-32320507D01*
X27288947Y-32265935D01*
X27042817Y-32191788D01*
X26214605Y-33020000D01*
X25855395Y-33020000D01*
X25027183Y-32191788D01*
X24781053Y-32265935D01*
X24587936Y-32803200D01*
X14605000Y-32803200D01*
X14605000Y-32012183D01*
X25206788Y-32012183D01*
X26035000Y-32840395D01*
X26863212Y-32012183D01*
X26789065Y-31766053D01*
X26251800Y-31572936D01*
X25681530Y-31600121D01*
X25280935Y-31766053D01*
X25206788Y-32012183D01*
X14605000Y-32012183D01*
X14605000Y-25400000D01*
X14995907Y-25400000D01*
X15108946Y-25968285D01*
X15430853Y-26450054D01*
X15760026Y-26670000D01*
X15430853Y-26889946D01*
X15108946Y-27371715D01*
X14995907Y-27940000D01*
X15108946Y-28508285D01*
X15430853Y-28990054D01*
X15472452Y-29017850D01*
X15424683Y-29026838D01*
X15208559Y-29165910D01*
X15063569Y-29378110D01*
X15012560Y-29630000D01*
X15012560Y-31330000D01*
X15056838Y-31565317D01*
X15195910Y-31781441D01*
X15408110Y-31926431D01*
X15660000Y-31977440D01*
X17360000Y-31977440D01*
X17595317Y-31933162D01*
X17811441Y-31794090D01*
X17956431Y-31581890D01*
X18007440Y-31330000D01*
X18007440Y-31161233D01*
X18222701Y-31017401D01*
X18474352Y-30765750D01*
X53125000Y-30765750D01*
X53125000Y-31456310D01*
X53221673Y-31689699D01*
X53400302Y-31868327D01*
X53633691Y-31965000D01*
X54324250Y-31965000D01*
X54483000Y-31806250D01*
X54483000Y-30607000D01*
X54737000Y-30607000D01*
X54737000Y-31806250D01*
X54895750Y-31965000D01*
X55586309Y-31965000D01*
X55819698Y-31868327D01*
X55998327Y-31689699D01*
X56095000Y-31456310D01*
X56095000Y-30765750D01*
X55936250Y-30607000D01*
X54737000Y-30607000D01*
X54483000Y-30607000D01*
X53283750Y-30607000D01*
X53125000Y-30765750D01*
X18474352Y-30765750D01*
X20817878Y-28422224D01*
X20965658Y-28779877D01*
X21382926Y-29197874D01*
X21928393Y-29424372D01*
X22519016Y-29424888D01*
X23064877Y-29199342D01*
X23482874Y-28782074D01*
X23709372Y-28236607D01*
X23709888Y-27645984D01*
X23581423Y-27335076D01*
X23878207Y-27335335D01*
X24589658Y-27041370D01*
X25009956Y-26621805D01*
X24680366Y-27415546D01*
X24679455Y-28459872D01*
X25078259Y-29425052D01*
X25816064Y-30164146D01*
X26780546Y-30564634D01*
X27824872Y-30565545D01*
X28790052Y-30166741D01*
X29529146Y-29428936D01*
X29929634Y-28464454D01*
X29929835Y-28234016D01*
X30900112Y-28234016D01*
X31125658Y-28779877D01*
X31542926Y-29197874D01*
X32088393Y-29424372D01*
X32679016Y-29424888D01*
X33224877Y-29199342D01*
X33642874Y-28782074D01*
X33869372Y-28236607D01*
X33869888Y-27645984D01*
X33644342Y-27100123D01*
X33227074Y-26682126D01*
X32681607Y-26455628D01*
X32090984Y-26455112D01*
X31545123Y-26680658D01*
X31127126Y-27097926D01*
X30900628Y-27643393D01*
X30900112Y-28234016D01*
X29929835Y-28234016D01*
X29930545Y-27420128D01*
X29531741Y-26454948D01*
X29237307Y-26160000D01*
X38384152Y-26160000D01*
X38519753Y-26488180D01*
X38053923Y-26680658D01*
X37635926Y-27097926D01*
X37409428Y-27643393D01*
X37408912Y-28234016D01*
X37634458Y-28779877D01*
X38051726Y-29197874D01*
X38597193Y-29424372D01*
X39187816Y-29424888D01*
X39733677Y-29199342D01*
X40151674Y-28782074D01*
X40378172Y-28236607D01*
X40378688Y-27645984D01*
X40250223Y-27335076D01*
X40547007Y-27335335D01*
X41258458Y-27041370D01*
X41678756Y-26621805D01*
X41349166Y-27415546D01*
X41348255Y-28459872D01*
X41747059Y-29425052D01*
X42484864Y-30164146D01*
X43449346Y-30564634D01*
X44493672Y-30565545D01*
X45458852Y-30166741D01*
X46197946Y-29428936D01*
X46598434Y-28464454D01*
X46598635Y-28234016D01*
X47568912Y-28234016D01*
X47794458Y-28779877D01*
X48211726Y-29197874D01*
X48757193Y-29424372D01*
X49347816Y-29424888D01*
X49893677Y-29199342D01*
X50311674Y-28782074D01*
X50538172Y-28236607D01*
X50538688Y-27645984D01*
X50313142Y-27100123D01*
X49895874Y-26682126D01*
X49350407Y-26455628D01*
X48759784Y-26455112D01*
X48213923Y-26680658D01*
X47795926Y-27097926D01*
X47569428Y-27643393D01*
X47568912Y-28234016D01*
X46598635Y-28234016D01*
X46599345Y-27420128D01*
X46200541Y-26454948D01*
X45462736Y-25715854D01*
X44702076Y-25400000D01*
X53095907Y-25400000D01*
X53208946Y-25968285D01*
X53530853Y-26450054D01*
X53860026Y-26670000D01*
X53530853Y-26889946D01*
X53208946Y-27371715D01*
X53095907Y-27940000D01*
X53208946Y-28508285D01*
X53530853Y-28990054D01*
X53574777Y-29019403D01*
X53400302Y-29091673D01*
X53221673Y-29270301D01*
X53125000Y-29503690D01*
X53125000Y-30194250D01*
X53283750Y-30353000D01*
X54483000Y-30353000D01*
X54483000Y-30333000D01*
X54737000Y-30333000D01*
X54737000Y-30353000D01*
X55936250Y-30353000D01*
X56095000Y-30194250D01*
X56095000Y-29503690D01*
X55998327Y-29270301D01*
X55819698Y-29091673D01*
X55645223Y-29019403D01*
X55689147Y-28990054D01*
X56011054Y-28508285D01*
X56124093Y-27940000D01*
X56011054Y-27371715D01*
X55689147Y-26889946D01*
X55359974Y-26670000D01*
X55689147Y-26450054D01*
X56011054Y-25968285D01*
X56124093Y-25400000D01*
X56011054Y-24831715D01*
X55689147Y-24349946D01*
X55207378Y-24028039D01*
X54639093Y-23915000D01*
X54580907Y-23915000D01*
X54012622Y-24028039D01*
X53530853Y-24349946D01*
X53208946Y-24831715D01*
X53095907Y-25400000D01*
X44702076Y-25400000D01*
X44498254Y-25315366D01*
X43453928Y-25314455D01*
X42488748Y-25713259D01*
X41874154Y-26326781D01*
X42098463Y-25786584D01*
X42099135Y-25016793D01*
X41805170Y-24305342D01*
X41261321Y-23760543D01*
X40550384Y-23465337D01*
X39780593Y-23464665D01*
X39069142Y-23758630D01*
X38524343Y-24302479D01*
X38384192Y-24640000D01*
X30604147Y-24640000D01*
X30939658Y-24501370D01*
X31484457Y-23957521D01*
X31779663Y-23246584D01*
X31779665Y-23243207D01*
X44578465Y-23243207D01*
X44872430Y-23954658D01*
X45416279Y-24499457D01*
X46127216Y-24794663D01*
X46897007Y-24795335D01*
X47608458Y-24501370D01*
X48153257Y-23957521D01*
X48448463Y-23246584D01*
X48449135Y-22476793D01*
X48155170Y-21765342D01*
X47611321Y-21220543D01*
X46900384Y-20925337D01*
X46130593Y-20924665D01*
X45419142Y-21218630D01*
X44874343Y-21762479D01*
X44579137Y-22473416D01*
X44578465Y-23243207D01*
X31779665Y-23243207D01*
X31780335Y-22476793D01*
X31486370Y-21765342D01*
X30942521Y-21220543D01*
X30231584Y-20925337D01*
X29461793Y-20924665D01*
X28750342Y-21218630D01*
X28205543Y-21762479D01*
X27910337Y-22473416D01*
X27909665Y-23243207D01*
X28203630Y-23954658D01*
X28747479Y-24499457D01*
X29085945Y-24640000D01*
X25274648Y-24640000D01*
X25136370Y-24305342D01*
X24592521Y-23760543D01*
X23881584Y-23465337D01*
X23111793Y-23464665D01*
X22400342Y-23758630D01*
X21855543Y-24302479D01*
X21560337Y-25013416D01*
X21559886Y-25530612D01*
X17858486Y-29232012D01*
X17824090Y-29178559D01*
X17611890Y-29033569D01*
X17544459Y-29019914D01*
X17589147Y-28990054D01*
X17911054Y-28508285D01*
X18024093Y-27940000D01*
X17911054Y-27371715D01*
X17589147Y-26889946D01*
X17259974Y-26670000D01*
X17589147Y-26450054D01*
X17911054Y-25968285D01*
X18024093Y-25400000D01*
X17911054Y-24831715D01*
X17589147Y-24349946D01*
X17107378Y-24028039D01*
X16539093Y-23915000D01*
X16480907Y-23915000D01*
X15912622Y-24028039D01*
X15430853Y-24349946D01*
X15108946Y-24831715D01*
X14995907Y-25400000D01*
X14605000Y-25400000D01*
X14605000Y-21777626D01*
X14977836Y-19903255D01*
X15933301Y-18473300D01*
X17363253Y-17517836D01*
X19237626Y-17145000D01*
X51882374Y-17145000D01*
X53756745Y-17517836D01*
X53756745Y-17517836D01*
G37*
X53756745Y-17517836D02*
X55186700Y-18473301D01*
X56142164Y-19903253D01*
X56515000Y-21777626D01*
X56515000Y-34102374D01*
X56142164Y-35976747D01*
X55186700Y-37406699D01*
X53756745Y-38362164D01*
X51882374Y-38735000D01*
X46990000Y-38735000D01*
X46260988Y-38880009D01*
X46005426Y-39050771D01*
X46000704Y-39039343D01*
X45751967Y-38790171D01*
X45426810Y-38655154D01*
X45074735Y-38654847D01*
X44849849Y-38747768D01*
X44626810Y-38655154D01*
X44274735Y-38654847D01*
X44049849Y-38747768D01*
X43826810Y-38655154D01*
X43474735Y-38654847D01*
X43149343Y-38789296D01*
X42900171Y-39038033D01*
X42894815Y-39050932D01*
X42639012Y-38880009D01*
X41910000Y-38735000D01*
X29210000Y-38735000D01*
X28480988Y-38880009D01*
X28225426Y-39050771D01*
X28220704Y-39039343D01*
X27971967Y-38790171D01*
X27646810Y-38655154D01*
X27294735Y-38654847D01*
X27069849Y-38747768D01*
X26846810Y-38655154D01*
X26494735Y-38654847D01*
X26269849Y-38747768D01*
X26046810Y-38655154D01*
X25694735Y-38654847D01*
X25369343Y-38789296D01*
X25120171Y-39038033D01*
X25114815Y-39050932D01*
X24859012Y-38880009D01*
X24130000Y-38735000D01*
X19237626Y-38735000D01*
X17363253Y-38362164D01*
X15933301Y-37406700D01*
X14977836Y-35976745D01*
X14605000Y-34102374D01*
X14605000Y-34027817D01*
X25206788Y-34027817D01*
X25280935Y-34273947D01*
X25818200Y-34467064D01*
X26388470Y-34439879D01*
X26789065Y-34273947D01*
X26863212Y-34027817D01*
X26035000Y-33199605D01*
X25206788Y-34027817D01*
X14605000Y-34027817D01*
X14605000Y-32803200D01*
X24587936Y-32803200D01*
X24615121Y-33373470D01*
X24781053Y-33774065D01*
X25027183Y-33848212D01*
X25855395Y-33020000D01*
X26214605Y-33020000D01*
X27042817Y-33848212D01*
X27288947Y-33774065D01*
X27309810Y-33716022D01*
X27357672Y-33831857D01*
X27761020Y-34235909D01*
X28288289Y-34454850D01*
X28859207Y-34455348D01*
X29386857Y-34237328D01*
X29596733Y-34027817D01*
X41875588Y-34027817D01*
X41949735Y-34273947D01*
X42487000Y-34467064D01*
X43057270Y-34439879D01*
X43457865Y-34273947D01*
X43532012Y-34027817D01*
X42703800Y-33199605D01*
X41875588Y-34027817D01*
X29596733Y-34027817D01*
X29790909Y-33833980D01*
X30009850Y-33306711D01*
X30010289Y-32803200D01*
X41256736Y-32803200D01*
X41283921Y-33373470D01*
X41449853Y-33774065D01*
X41695983Y-33848212D01*
X42524195Y-33020000D01*
X42883405Y-33020000D01*
X43711617Y-33848212D01*
X43957747Y-33774065D01*
X43978610Y-33716022D01*
X44026472Y-33831857D01*
X44429820Y-34235909D01*
X44957089Y-34454850D01*
X45528007Y-34455348D01*
X46055657Y-34237328D01*
X46459709Y-33833980D01*
X46678650Y-33306711D01*
X46679148Y-32735793D01*
X46461128Y-32208143D01*
X46057780Y-31804091D01*
X45530511Y-31585150D01*
X44959593Y-31584652D01*
X44431943Y-31802672D01*
X44027891Y-32206020D01*
X43980352Y-32320507D01*
X43957747Y-32265935D01*
X43711617Y-32191788D01*
X42883405Y-33020000D01*
X42524195Y-33020000D01*
X41695983Y-32191788D01*
X41449853Y-32265935D01*
X41256736Y-32803200D01*
X30010289Y-32803200D01*
X30010348Y-32735793D01*
X29792328Y-32208143D01*
X29596710Y-32012183D01*
X41875588Y-32012183D01*
X42703800Y-32840395D01*
X43532012Y-32012183D01*
X43457865Y-31766053D01*
X42920600Y-31572936D01*
X42350330Y-31600121D01*
X41949735Y-31766053D01*
X41875588Y-32012183D01*
X29596710Y-32012183D01*
X29388980Y-31804091D01*
X28861711Y-31585150D01*
X28290793Y-31584652D01*
X27763143Y-31802672D01*
X27359091Y-32206020D01*
X27311552Y-32320507D01*
X27288947Y-32265935D01*
X27042817Y-32191788D01*
X26214605Y-33020000D01*
X25855395Y-33020000D01*
X25027183Y-32191788D01*
X24781053Y-32265935D01*
X24587936Y-32803200D01*
X14605000Y-32803200D01*
X14605000Y-32012183D01*
X25206788Y-32012183D01*
X26035000Y-32840395D01*
X26863212Y-32012183D01*
X26789065Y-31766053D01*
X26251800Y-31572936D01*
X25681530Y-31600121D01*
X25280935Y-31766053D01*
X25206788Y-32012183D01*
X14605000Y-32012183D01*
X14605000Y-25400000D01*
X14995907Y-25400000D01*
X15108946Y-25968285D01*
X15430853Y-26450054D01*
X15760026Y-26670000D01*
X15430853Y-26889946D01*
X15108946Y-27371715D01*
X14995907Y-27940000D01*
X15108946Y-28508285D01*
X15430853Y-28990054D01*
X15472452Y-29017850D01*
X15424683Y-29026838D01*
X15208559Y-29165910D01*
X15063569Y-29378110D01*
X15012560Y-29630000D01*
X15012560Y-31330000D01*
X15056838Y-31565317D01*
X15195910Y-31781441D01*
X15408110Y-31926431D01*
X15660000Y-31977440D01*
X17360000Y-31977440D01*
X17595317Y-31933162D01*
X17811441Y-31794090D01*
X17956431Y-31581890D01*
X18007440Y-31330000D01*
X18007440Y-31161233D01*
X18222701Y-31017401D01*
X18474352Y-30765750D01*
X53125000Y-30765750D01*
X53125000Y-31456310D01*
X53221673Y-31689699D01*
X53400302Y-31868327D01*
X53633691Y-31965000D01*
X54324250Y-31965000D01*
X54483000Y-31806250D01*
X54483000Y-30607000D01*
X54737000Y-30607000D01*
X54737000Y-31806250D01*
X54895750Y-31965000D01*
X55586309Y-31965000D01*
X55819698Y-31868327D01*
X55998327Y-31689699D01*
X56095000Y-31456310D01*
X56095000Y-30765750D01*
X55936250Y-30607000D01*
X54737000Y-30607000D01*
X54483000Y-30607000D01*
X53283750Y-30607000D01*
X53125000Y-30765750D01*
X18474352Y-30765750D01*
X20817878Y-28422224D01*
X20965658Y-28779877D01*
X21382926Y-29197874D01*
X21928393Y-29424372D01*
X22519016Y-29424888D01*
X23064877Y-29199342D01*
X23482874Y-28782074D01*
X23709372Y-28236607D01*
X23709888Y-27645984D01*
X23581423Y-27335076D01*
X23878207Y-27335335D01*
X24589658Y-27041370D01*
X25009956Y-26621805D01*
X24680366Y-27415546D01*
X24679455Y-28459872D01*
X25078259Y-29425052D01*
X25816064Y-30164146D01*
X26780546Y-30564634D01*
X27824872Y-30565545D01*
X28790052Y-30166741D01*
X29529146Y-29428936D01*
X29929634Y-28464454D01*
X29929835Y-28234016D01*
X30900112Y-28234016D01*
X31125658Y-28779877D01*
X31542926Y-29197874D01*
X32088393Y-29424372D01*
X32679016Y-29424888D01*
X33224877Y-29199342D01*
X33642874Y-28782074D01*
X33869372Y-28236607D01*
X33869888Y-27645984D01*
X33644342Y-27100123D01*
X33227074Y-26682126D01*
X32681607Y-26455628D01*
X32090984Y-26455112D01*
X31545123Y-26680658D01*
X31127126Y-27097926D01*
X30900628Y-27643393D01*
X30900112Y-28234016D01*
X29929835Y-28234016D01*
X29930545Y-27420128D01*
X29531741Y-26454948D01*
X29237307Y-26160000D01*
X38384152Y-26160000D01*
X38519753Y-26488180D01*
X38053923Y-26680658D01*
X37635926Y-27097926D01*
X37409428Y-27643393D01*
X37408912Y-28234016D01*
X37634458Y-28779877D01*
X38051726Y-29197874D01*
X38597193Y-29424372D01*
X39187816Y-29424888D01*
X39733677Y-29199342D01*
X40151674Y-28782074D01*
X40378172Y-28236607D01*
X40378688Y-27645984D01*
X40250223Y-27335076D01*
X40547007Y-27335335D01*
X41258458Y-27041370D01*
X41678756Y-26621805D01*
X41349166Y-27415546D01*
X41348255Y-28459872D01*
X41747059Y-29425052D01*
X42484864Y-30164146D01*
X43449346Y-30564634D01*
X44493672Y-30565545D01*
X45458852Y-30166741D01*
X46197946Y-29428936D01*
X46598434Y-28464454D01*
X46598635Y-28234016D01*
X47568912Y-28234016D01*
X47794458Y-28779877D01*
X48211726Y-29197874D01*
X48757193Y-29424372D01*
X49347816Y-29424888D01*
X49893677Y-29199342D01*
X50311674Y-28782074D01*
X50538172Y-28236607D01*
X50538688Y-27645984D01*
X50313142Y-27100123D01*
X49895874Y-26682126D01*
X49350407Y-26455628D01*
X48759784Y-26455112D01*
X48213923Y-26680658D01*
X47795926Y-27097926D01*
X47569428Y-27643393D01*
X47568912Y-28234016D01*
X46598635Y-28234016D01*
X46599345Y-27420128D01*
X46200541Y-26454948D01*
X45462736Y-25715854D01*
X44702076Y-25400000D01*
X53095907Y-25400000D01*
X53208946Y-25968285D01*
X53530853Y-26450054D01*
X53860026Y-26670000D01*
X53530853Y-26889946D01*
X53208946Y-27371715D01*
X53095907Y-27940000D01*
X53208946Y-28508285D01*
X53530853Y-28990054D01*
X53574777Y-29019403D01*
X53400302Y-29091673D01*
X53221673Y-29270301D01*
X53125000Y-29503690D01*
X53125000Y-30194250D01*
X53283750Y-30353000D01*
X54483000Y-30353000D01*
X54483000Y-30333000D01*
X54737000Y-30333000D01*
X54737000Y-30353000D01*
X55936250Y-30353000D01*
X56095000Y-30194250D01*
X56095000Y-29503690D01*
X55998327Y-29270301D01*
X55819698Y-29091673D01*
X55645223Y-29019403D01*
X55689147Y-28990054D01*
X56011054Y-28508285D01*
X56124093Y-27940000D01*
X56011054Y-27371715D01*
X55689147Y-26889946D01*
X55359974Y-26670000D01*
X55689147Y-26450054D01*
X56011054Y-25968285D01*
X56124093Y-25400000D01*
X56011054Y-24831715D01*
X55689147Y-24349946D01*
X55207378Y-24028039D01*
X54639093Y-23915000D01*
X54580907Y-23915000D01*
X54012622Y-24028039D01*
X53530853Y-24349946D01*
X53208946Y-24831715D01*
X53095907Y-25400000D01*
X44702076Y-25400000D01*
X44498254Y-25315366D01*
X43453928Y-25314455D01*
X42488748Y-25713259D01*
X41874154Y-26326781D01*
X42098463Y-25786584D01*
X42099135Y-25016793D01*
X41805170Y-24305342D01*
X41261321Y-23760543D01*
X40550384Y-23465337D01*
X39780593Y-23464665D01*
X39069142Y-23758630D01*
X38524343Y-24302479D01*
X38384192Y-24640000D01*
X30604147Y-24640000D01*
X30939658Y-24501370D01*
X31484457Y-23957521D01*
X31779663Y-23246584D01*
X31779665Y-23243207D01*
X44578465Y-23243207D01*
X44872430Y-23954658D01*
X45416279Y-24499457D01*
X46127216Y-24794663D01*
X46897007Y-24795335D01*
X47608458Y-24501370D01*
X48153257Y-23957521D01*
X48448463Y-23246584D01*
X48449135Y-22476793D01*
X48155170Y-21765342D01*
X47611321Y-21220543D01*
X46900384Y-20925337D01*
X46130593Y-20924665D01*
X45419142Y-21218630D01*
X44874343Y-21762479D01*
X44579137Y-22473416D01*
X44578465Y-23243207D01*
X31779665Y-23243207D01*
X31780335Y-22476793D01*
X31486370Y-21765342D01*
X30942521Y-21220543D01*
X30231584Y-20925337D01*
X29461793Y-20924665D01*
X28750342Y-21218630D01*
X28205543Y-21762479D01*
X27910337Y-22473416D01*
X27909665Y-23243207D01*
X28203630Y-23954658D01*
X28747479Y-24499457D01*
X29085945Y-24640000D01*
X25274648Y-24640000D01*
X25136370Y-24305342D01*
X24592521Y-23760543D01*
X23881584Y-23465337D01*
X23111793Y-23464665D01*
X22400342Y-23758630D01*
X21855543Y-24302479D01*
X21560337Y-25013416D01*
X21559886Y-25530612D01*
X17858486Y-29232012D01*
X17824090Y-29178559D01*
X17611890Y-29033569D01*
X17544459Y-29019914D01*
X17589147Y-28990054D01*
X17911054Y-28508285D01*
X18024093Y-27940000D01*
X17911054Y-27371715D01*
X17589147Y-26889946D01*
X17259974Y-26670000D01*
X17589147Y-26450054D01*
X17911054Y-25968285D01*
X18024093Y-25400000D01*
X17911054Y-24831715D01*
X17589147Y-24349946D01*
X17107378Y-24028039D01*
X16539093Y-23915000D01*
X16480907Y-23915000D01*
X15912622Y-24028039D01*
X15430853Y-24349946D01*
X15108946Y-24831715D01*
X14995907Y-25400000D01*
X14605000Y-25400000D01*
X14605000Y-21777626D01*
X14977836Y-19903255D01*
X15933301Y-18473300D01*
X17363253Y-17517836D01*
X19237626Y-17145000D01*
X51882374Y-17145000D01*
X53756745Y-17517836D01*
M02*
