G04 #@! TF.FileFunction,Legend,Top*
%FSLAX46Y46*%
G04 Gerber Fmt 4.6, Leading zero omitted, Abs format (unit mm)*
G04 Created by KiCad (PCBNEW 4.0.6) date 01/19/18 19:38:46*
%MOMM*%
%LPD*%
G01*
G04 APERTURE LIST*
%ADD10C,0.020000*%
%ADD11C,0.100000*%
%ADD12C,0.150000*%
%ADD13C,0.381000*%
%ADD14C,0.120000*%
%ADD15C,0.304800*%
%ADD16C,0.203200*%
G04 APERTURE END LIST*
D10*
D11*
X46780000Y-39370000D02*
G75*
G03X46780000Y-41910000I0J-1270000D01*
G01*
X42120000Y-39370000D02*
G75*
G02X42120000Y-41910000I0J-1270000D01*
G01*
D12*
X33655000Y-20320000D02*
X34925000Y-20320000D01*
X34925000Y-20320000D02*
X34925000Y-21590000D01*
X33655000Y-35560000D02*
X34925000Y-35560000D01*
X34925000Y-35560000D02*
X34925000Y-34290000D01*
X19685000Y-34290000D02*
X19685000Y-35560000D01*
X19685000Y-35560000D02*
X20955000Y-35560000D01*
X19685000Y-21590000D02*
X19685000Y-20320000D01*
X19685000Y-20320000D02*
X20955000Y-20320000D01*
D13*
X19685000Y-20320000D02*
X34925000Y-20320000D01*
X34925000Y-20320000D02*
X34925000Y-35560000D01*
X34925000Y-35560000D02*
X19685000Y-35560000D01*
X19685000Y-35560000D02*
X19685000Y-20320000D01*
D14*
X36060000Y-53760000D02*
X35060000Y-53760000D01*
X35060000Y-55460000D02*
X36060000Y-55460000D01*
X21800000Y-61750000D02*
X23920000Y-61750000D01*
X23920000Y-61750000D02*
X23920000Y-57630000D01*
X23920000Y-57630000D02*
X21800000Y-57630000D01*
X21800000Y-57630000D02*
X21800000Y-61750000D01*
X22860000Y-62520000D02*
X22860000Y-61750000D01*
X22860000Y-56860000D02*
X22860000Y-57630000D01*
X21800000Y-61090000D02*
X23920000Y-61090000D01*
X26880000Y-61750000D02*
X29000000Y-61750000D01*
X29000000Y-61750000D02*
X29000000Y-57630000D01*
X29000000Y-57630000D02*
X26880000Y-57630000D01*
X26880000Y-57630000D02*
X26880000Y-61750000D01*
X27940000Y-62520000D02*
X27940000Y-61750000D01*
X27940000Y-56860000D02*
X27940000Y-57630000D01*
X26880000Y-61090000D02*
X29000000Y-61090000D01*
D12*
X50323800Y-20320000D02*
X51593800Y-20320000D01*
X51593800Y-20320000D02*
X51593800Y-21590000D01*
X50323800Y-35560000D02*
X51593800Y-35560000D01*
X51593800Y-35560000D02*
X51593800Y-34290000D01*
X36353800Y-34290000D02*
X36353800Y-35560000D01*
X36353800Y-35560000D02*
X37623800Y-35560000D01*
X36353800Y-21590000D02*
X36353800Y-20320000D01*
X36353800Y-20320000D02*
X37623800Y-20320000D01*
D14*
X46320000Y-52950000D02*
X45120000Y-52950000D01*
X45120000Y-51190000D02*
X46320000Y-51190000D01*
X46320000Y-47870000D02*
X45120000Y-47870000D01*
X45120000Y-46110000D02*
X46320000Y-46110000D01*
D13*
X36353800Y-20320000D02*
X51593800Y-20320000D01*
X51593800Y-20320000D02*
X51593800Y-35560000D01*
X51593800Y-35560000D02*
X36353800Y-35560000D01*
X36353800Y-35560000D02*
X36353800Y-20320000D01*
D14*
X36560000Y-43120000D02*
G75*
G02X34560000Y-43120000I-1000000J0D01*
G01*
X34560000Y-43120000D02*
X32910000Y-43120000D01*
X32910000Y-43120000D02*
X32910000Y-53400000D01*
X32910000Y-53400000D02*
X38210000Y-53400000D01*
X38210000Y-53400000D02*
X38210000Y-43120000D01*
X38210000Y-43120000D02*
X36560000Y-43120000D01*
X55940000Y-49470000D02*
X53280000Y-49470000D01*
X55940000Y-54610000D02*
X55940000Y-49470000D01*
X53280000Y-54610000D02*
X53280000Y-49470000D01*
X55940000Y-54610000D02*
X53280000Y-54610000D01*
X55940000Y-55880000D02*
X55940000Y-57210000D01*
X55940000Y-57210000D02*
X54610000Y-57210000D01*
X17840000Y-49470000D02*
X15180000Y-49470000D01*
X17840000Y-54610000D02*
X17840000Y-49470000D01*
X15180000Y-54610000D02*
X15180000Y-49470000D01*
X17840000Y-54610000D02*
X15180000Y-54610000D01*
X17840000Y-55880000D02*
X17840000Y-57210000D01*
X17840000Y-57210000D02*
X16510000Y-57210000D01*
X55940000Y-24070000D02*
X53280000Y-24070000D01*
X55940000Y-29210000D02*
X55940000Y-24070000D01*
X53280000Y-29210000D02*
X53280000Y-24070000D01*
X55940000Y-29210000D02*
X53280000Y-29210000D01*
X55940000Y-30480000D02*
X55940000Y-31810000D01*
X55940000Y-31810000D02*
X54610000Y-31810000D01*
X17840000Y-24070000D02*
X15180000Y-24070000D01*
X17840000Y-29210000D02*
X17840000Y-24070000D01*
X15180000Y-29210000D02*
X15180000Y-24070000D01*
X17840000Y-29210000D02*
X15180000Y-29210000D01*
X17840000Y-30480000D02*
X17840000Y-31810000D01*
X17840000Y-31810000D02*
X16510000Y-31810000D01*
X22825000Y-19930000D02*
X21625000Y-19930000D01*
X21625000Y-18170000D02*
X22825000Y-18170000D01*
X39335000Y-19930000D02*
X38135000Y-19930000D01*
X38135000Y-18170000D02*
X39335000Y-18170000D01*
X32985000Y-37710000D02*
X31785000Y-37710000D01*
X31785000Y-35950000D02*
X32985000Y-35950000D01*
X49495000Y-37710000D02*
X48295000Y-37710000D01*
X48295000Y-35950000D02*
X49495000Y-35950000D01*
D11*
X29000000Y-39370000D02*
G75*
G03X29000000Y-41910000I0J-1270000D01*
G01*
X24340000Y-39370000D02*
G75*
G02X24340000Y-41910000I0J-1270000D01*
G01*
X25586572Y-31722190D02*
X25348477Y-31722190D01*
X25348477Y-31222190D01*
X25753239Y-31460286D02*
X25919905Y-31460286D01*
X25991334Y-31722190D02*
X25753239Y-31722190D01*
X25753239Y-31222190D01*
X25991334Y-31222190D01*
X26205620Y-31722190D02*
X26205620Y-31222190D01*
X26324667Y-31222190D01*
X26396096Y-31246000D01*
X26443715Y-31293619D01*
X26467524Y-31341238D01*
X26491334Y-31436476D01*
X26491334Y-31507905D01*
X26467524Y-31603143D01*
X26443715Y-31650762D01*
X26396096Y-31698381D01*
X26324667Y-31722190D01*
X26205620Y-31722190D01*
D15*
X27232428Y-19739429D02*
X27232428Y-18215429D01*
X27740428Y-19304000D01*
X28248428Y-18215429D01*
X28248428Y-19739429D01*
X28828999Y-18215429D02*
X29844999Y-19739429D01*
X29844999Y-18215429D02*
X28828999Y-19739429D01*
X31223857Y-19739429D02*
X30353000Y-19739429D01*
X30788428Y-19739429D02*
X30788428Y-18215429D01*
X30643285Y-18433143D01*
X30498143Y-18578286D01*
X30353000Y-18650857D01*
X31804429Y-19304000D02*
X32530143Y-19304000D01*
X31659286Y-19739429D02*
X32167286Y-18215429D01*
X32675286Y-19739429D01*
D12*
X39203334Y-54967143D02*
X39155715Y-55014762D01*
X39012858Y-55062381D01*
X38917620Y-55062381D01*
X38774762Y-55014762D01*
X38679524Y-54919524D01*
X38631905Y-54824286D01*
X38584286Y-54633810D01*
X38584286Y-54490952D01*
X38631905Y-54300476D01*
X38679524Y-54205238D01*
X38774762Y-54110000D01*
X38917620Y-54062381D01*
X39012858Y-54062381D01*
X39155715Y-54110000D01*
X39203334Y-54157619D01*
X40155715Y-55062381D02*
X39584286Y-55062381D01*
X39870000Y-55062381D02*
X39870000Y-54062381D01*
X39774762Y-54205238D01*
X39679524Y-54300476D01*
X39584286Y-54348095D01*
X22121905Y-53792381D02*
X22121905Y-52792381D01*
X22360000Y-52792381D01*
X22502858Y-52840000D01*
X22598096Y-52935238D01*
X22645715Y-53030476D01*
X22693334Y-53220952D01*
X22693334Y-53363810D01*
X22645715Y-53554286D01*
X22598096Y-53649524D01*
X22502858Y-53744762D01*
X22360000Y-53792381D01*
X22121905Y-53792381D01*
X23645715Y-53792381D02*
X23074286Y-53792381D01*
X23360000Y-53792381D02*
X23360000Y-52792381D01*
X23264762Y-52935238D01*
X23169524Y-53030476D01*
X23074286Y-53078095D01*
X27201905Y-53792381D02*
X27201905Y-52792381D01*
X27440000Y-52792381D01*
X27582858Y-52840000D01*
X27678096Y-52935238D01*
X27725715Y-53030476D01*
X27773334Y-53220952D01*
X27773334Y-53363810D01*
X27725715Y-53554286D01*
X27678096Y-53649524D01*
X27582858Y-53744762D01*
X27440000Y-53792381D01*
X27201905Y-53792381D01*
X28154286Y-52887619D02*
X28201905Y-52840000D01*
X28297143Y-52792381D01*
X28535239Y-52792381D01*
X28630477Y-52840000D01*
X28678096Y-52887619D01*
X28725715Y-52982857D01*
X28725715Y-53078095D01*
X28678096Y-53220952D01*
X28106667Y-53792381D01*
X28725715Y-53792381D01*
D11*
X42350572Y-31722190D02*
X42112477Y-31722190D01*
X42112477Y-31222190D01*
X42517239Y-31460286D02*
X42683905Y-31460286D01*
X42755334Y-31722190D02*
X42517239Y-31722190D01*
X42517239Y-31222190D01*
X42755334Y-31222190D01*
X42969620Y-31722190D02*
X42969620Y-31222190D01*
X43088667Y-31222190D01*
X43160096Y-31246000D01*
X43207715Y-31293619D01*
X43231524Y-31341238D01*
X43255334Y-31436476D01*
X43255334Y-31507905D01*
X43231524Y-31603143D01*
X43207715Y-31650762D01*
X43160096Y-31698381D01*
X43088667Y-31722190D01*
X42969620Y-31722190D01*
D12*
X44029334Y-54300381D02*
X43696000Y-53824190D01*
X43457905Y-54300381D02*
X43457905Y-53300381D01*
X43838858Y-53300381D01*
X43934096Y-53348000D01*
X43981715Y-53395619D01*
X44029334Y-53490857D01*
X44029334Y-53633714D01*
X43981715Y-53728952D01*
X43934096Y-53776571D01*
X43838858Y-53824190D01*
X43457905Y-53824190D01*
X44981715Y-54300381D02*
X44410286Y-54300381D01*
X44696000Y-54300381D02*
X44696000Y-53300381D01*
X44600762Y-53443238D01*
X44505524Y-53538476D01*
X44410286Y-53586095D01*
X44029334Y-49220381D02*
X43696000Y-48744190D01*
X43457905Y-49220381D02*
X43457905Y-48220381D01*
X43838858Y-48220381D01*
X43934096Y-48268000D01*
X43981715Y-48315619D01*
X44029334Y-48410857D01*
X44029334Y-48553714D01*
X43981715Y-48648952D01*
X43934096Y-48696571D01*
X43838858Y-48744190D01*
X43457905Y-48744190D01*
X44410286Y-48315619D02*
X44457905Y-48268000D01*
X44553143Y-48220381D01*
X44791239Y-48220381D01*
X44886477Y-48268000D01*
X44934096Y-48315619D01*
X44981715Y-48410857D01*
X44981715Y-48506095D01*
X44934096Y-48648952D01*
X44362667Y-49220381D01*
X44981715Y-49220381D01*
D15*
X43742478Y-19739429D02*
X43742478Y-18215429D01*
X44250478Y-19304000D01*
X44758478Y-18215429D01*
X44758478Y-19739429D01*
X45339049Y-18215429D02*
X46355049Y-19739429D01*
X46355049Y-18215429D02*
X45339049Y-19739429D01*
X47733907Y-19739429D02*
X46863050Y-19739429D01*
X47298478Y-19739429D02*
X47298478Y-18215429D01*
X47153335Y-18433143D01*
X47008193Y-18578286D01*
X46863050Y-18650857D01*
X48314479Y-19304000D02*
X49040193Y-19304000D01*
X48169336Y-19739429D02*
X48677336Y-18215429D01*
X49185336Y-19739429D01*
D12*
X34798095Y-45172381D02*
X34798095Y-45981905D01*
X34845714Y-46077143D01*
X34893333Y-46124762D01*
X34988571Y-46172381D01*
X35179048Y-46172381D01*
X35274286Y-46124762D01*
X35321905Y-46077143D01*
X35369524Y-45981905D01*
X35369524Y-45172381D01*
X36369524Y-46172381D02*
X35798095Y-46172381D01*
X36083809Y-46172381D02*
X36083809Y-45172381D01*
X35988571Y-45315238D01*
X35893333Y-45410476D01*
X35798095Y-45458095D01*
X54276667Y-47712381D02*
X54276667Y-48426667D01*
X54229047Y-48569524D01*
X54133809Y-48664762D01*
X53990952Y-48712381D01*
X53895714Y-48712381D01*
X54705238Y-47807619D02*
X54752857Y-47760000D01*
X54848095Y-47712381D01*
X55086191Y-47712381D01*
X55181429Y-47760000D01*
X55229048Y-47807619D01*
X55276667Y-47902857D01*
X55276667Y-47998095D01*
X55229048Y-48140952D01*
X54657619Y-48712381D01*
X55276667Y-48712381D01*
X16176667Y-47712381D02*
X16176667Y-48426667D01*
X16129047Y-48569524D01*
X16033809Y-48664762D01*
X15890952Y-48712381D01*
X15795714Y-48712381D01*
X16557619Y-47712381D02*
X17176667Y-47712381D01*
X16843333Y-48093333D01*
X16986191Y-48093333D01*
X17081429Y-48140952D01*
X17129048Y-48188571D01*
X17176667Y-48283810D01*
X17176667Y-48521905D01*
X17129048Y-48617143D01*
X17081429Y-48664762D01*
X16986191Y-48712381D01*
X16700476Y-48712381D01*
X16605238Y-48664762D01*
X16557619Y-48617143D01*
X54276667Y-32262381D02*
X54276667Y-32976667D01*
X54229047Y-33119524D01*
X54133809Y-33214762D01*
X53990952Y-33262381D01*
X53895714Y-33262381D01*
X55181429Y-32595714D02*
X55181429Y-33262381D01*
X54943333Y-32214762D02*
X54705238Y-32929048D01*
X55324286Y-32929048D01*
X16176667Y-32262381D02*
X16176667Y-32976667D01*
X16129047Y-33119524D01*
X16033809Y-33214762D01*
X15890952Y-33262381D01*
X15795714Y-33262381D01*
X17129048Y-32262381D02*
X16652857Y-32262381D01*
X16605238Y-32738571D01*
X16652857Y-32690952D01*
X16748095Y-32643333D01*
X16986191Y-32643333D01*
X17081429Y-32690952D01*
X17129048Y-32738571D01*
X17176667Y-32833810D01*
X17176667Y-33071905D01*
X17129048Y-33167143D01*
X17081429Y-33214762D01*
X16986191Y-33262381D01*
X16748095Y-33262381D01*
X16652857Y-33214762D01*
X16605238Y-33167143D01*
X25233334Y-19502381D02*
X24900000Y-19026190D01*
X24661905Y-19502381D02*
X24661905Y-18502381D01*
X25042858Y-18502381D01*
X25138096Y-18550000D01*
X25185715Y-18597619D01*
X25233334Y-18692857D01*
X25233334Y-18835714D01*
X25185715Y-18930952D01*
X25138096Y-18978571D01*
X25042858Y-19026190D01*
X24661905Y-19026190D01*
X25566667Y-18502381D02*
X26185715Y-18502381D01*
X25852381Y-18883333D01*
X25995239Y-18883333D01*
X26090477Y-18930952D01*
X26138096Y-18978571D01*
X26185715Y-19073810D01*
X26185715Y-19311905D01*
X26138096Y-19407143D01*
X26090477Y-19454762D01*
X25995239Y-19502381D01*
X25709524Y-19502381D01*
X25614286Y-19454762D01*
X25566667Y-19407143D01*
X41743334Y-19502381D02*
X41410000Y-19026190D01*
X41171905Y-19502381D02*
X41171905Y-18502381D01*
X41552858Y-18502381D01*
X41648096Y-18550000D01*
X41695715Y-18597619D01*
X41743334Y-18692857D01*
X41743334Y-18835714D01*
X41695715Y-18930952D01*
X41648096Y-18978571D01*
X41552858Y-19026190D01*
X41171905Y-19026190D01*
X42600477Y-18835714D02*
X42600477Y-19502381D01*
X42362381Y-18454762D02*
X42124286Y-19169048D01*
X42743334Y-19169048D01*
X35393334Y-37282381D02*
X35060000Y-36806190D01*
X34821905Y-37282381D02*
X34821905Y-36282381D01*
X35202858Y-36282381D01*
X35298096Y-36330000D01*
X35345715Y-36377619D01*
X35393334Y-36472857D01*
X35393334Y-36615714D01*
X35345715Y-36710952D01*
X35298096Y-36758571D01*
X35202858Y-36806190D01*
X34821905Y-36806190D01*
X36298096Y-36282381D02*
X35821905Y-36282381D01*
X35774286Y-36758571D01*
X35821905Y-36710952D01*
X35917143Y-36663333D01*
X36155239Y-36663333D01*
X36250477Y-36710952D01*
X36298096Y-36758571D01*
X36345715Y-36853810D01*
X36345715Y-37091905D01*
X36298096Y-37187143D01*
X36250477Y-37234762D01*
X36155239Y-37282381D01*
X35917143Y-37282381D01*
X35821905Y-37234762D01*
X35774286Y-37187143D01*
X51903334Y-37282381D02*
X51570000Y-36806190D01*
X51331905Y-37282381D02*
X51331905Y-36282381D01*
X51712858Y-36282381D01*
X51808096Y-36330000D01*
X51855715Y-36377619D01*
X51903334Y-36472857D01*
X51903334Y-36615714D01*
X51855715Y-36710952D01*
X51808096Y-36758571D01*
X51712858Y-36806190D01*
X51331905Y-36806190D01*
X52760477Y-36282381D02*
X52570000Y-36282381D01*
X52474762Y-36330000D01*
X52427143Y-36377619D01*
X52331905Y-36520476D01*
X52284286Y-36710952D01*
X52284286Y-37091905D01*
X52331905Y-37187143D01*
X52379524Y-37234762D01*
X52474762Y-37282381D01*
X52665239Y-37282381D01*
X52760477Y-37234762D01*
X52808096Y-37187143D01*
X52855715Y-37091905D01*
X52855715Y-36853810D01*
X52808096Y-36758571D01*
X52760477Y-36710952D01*
X52665239Y-36663333D01*
X52474762Y-36663333D01*
X52379524Y-36710952D01*
X52331905Y-36758571D01*
X52284286Y-36853810D01*
D16*
X35289067Y-61694895D02*
X35289067Y-62275467D01*
X35250363Y-62391581D01*
X35172953Y-62468990D01*
X35056839Y-62507695D01*
X34979429Y-62507695D01*
X36101867Y-62507695D02*
X35637410Y-62507695D01*
X35869639Y-62507695D02*
X35869639Y-61694895D01*
X35792229Y-61811010D01*
X35714820Y-61888419D01*
X35637410Y-61927124D01*
M02*
