M48
;DRILL file {KiCad 4.0.6} date 01/19/18 19:39:21
;FORMAT={-:-/ absolute / inch / decimal}
FMAT,2
INCH,TZ
T1C0.016
T2C0.031
T3C0.032
T4C0.039
T5C0.059
T6C0.067
T7C0.157
T8C0.020
T9C0.087
%
G90
G05
M72
T1
X1.4133Y-2.4136
T2
X0.9Y-2.2
X0.9Y-2.5
X1.1Y-2.2
X1.1Y-2.5
X1.25Y-1.75
X1.25Y-1.85
X1.25Y-1.95
X1.25Y-2.05
X1.55Y-1.75
X1.55Y-1.85
X1.55Y-1.95
X1.55Y-2.05
T3
X1.025Y-1.3
X1.125Y-1.3
X1.6813Y-1.3
X1.7813Y-1.3
T4
X0.65Y-1.
X0.65Y-1.1
X0.65Y-1.2
X0.65Y-2.
X0.65Y-2.1
X0.65Y-2.2
X2.15Y-1.
X2.15Y-1.1
X2.15Y-1.2
X2.15Y-2.
X2.15Y-2.1
X2.15Y-2.2
T5
X0.925Y-1.
X1.175Y-0.9
X1.5813Y-1.
X1.8313Y-0.9
T6
X0.875Y-1.1
X1.275Y-1.1
X1.5313Y-1.1
X1.9313Y-1.1
T7
X1.075Y-1.1
X1.7313Y-1.1
T8
X1.0185Y-1.5567
X1.0185Y-1.6433
X1.05Y-1.5567
X1.05Y-1.6433
X1.0815Y-1.5567
X1.0815Y-1.6433
X1.7185Y-1.5567
X1.7185Y-1.6433
X1.75Y-1.5567
X1.75Y-1.6433
X1.7815Y-1.5567
X1.7815Y-1.6433
T9
X0.7Y-1.8
X0.7Y-2.4
X2.1Y-1.8
X2.1Y-2.4
T0
M30
