G04 #@! TF.FileFunction,Legend,Bot*
%FSLAX46Y46*%
G04 Gerber Fmt 4.6, Leading zero omitted, Abs format (unit mm)*
G04 Created by KiCad (PCBNEW 4.0.6) date 01/19/18 19:39:35*
%MOMM*%
%LPD*%
G01*
G04 APERTURE LIST*
%ADD10C,0.020000*%
%ADD11C,0.300000*%
G04 APERTURE END LIST*
D10*
D11*
X47604856Y-61638571D02*
X48104856Y-60924286D01*
X48461999Y-61638571D02*
X48461999Y-60138571D01*
X47890571Y-60138571D01*
X47747713Y-60210000D01*
X47676285Y-60281429D01*
X47604856Y-60424286D01*
X47604856Y-60638571D01*
X47676285Y-60781429D01*
X47747713Y-60852857D01*
X47890571Y-60924286D01*
X48461999Y-60924286D01*
X46390571Y-61567143D02*
X46533428Y-61638571D01*
X46819142Y-61638571D01*
X46961999Y-61567143D01*
X47033428Y-61424286D01*
X47033428Y-60852857D01*
X46961999Y-60710000D01*
X46819142Y-60638571D01*
X46533428Y-60638571D01*
X46390571Y-60710000D01*
X46319142Y-60852857D01*
X46319142Y-60995714D01*
X47033428Y-61138571D01*
X45819142Y-60638571D02*
X45461999Y-61638571D01*
X45104857Y-60638571D01*
X44533428Y-61495714D02*
X44462000Y-61567143D01*
X44533428Y-61638571D01*
X44604857Y-61567143D01*
X44533428Y-61495714D01*
X44533428Y-61638571D01*
X44533428Y-60710000D02*
X44462000Y-60781429D01*
X44533428Y-60852857D01*
X44604857Y-60781429D01*
X44533428Y-60710000D01*
X44533428Y-60852857D01*
X41890571Y-61638571D02*
X42747714Y-61638571D01*
X42319142Y-61638571D02*
X42319142Y-60138571D01*
X42461999Y-60352857D01*
X42604857Y-60495714D01*
X42747714Y-60567143D01*
X47604856Y-36238571D02*
X48104856Y-35524286D01*
X48461999Y-36238571D02*
X48461999Y-34738571D01*
X47890571Y-34738571D01*
X47747713Y-34810000D01*
X47676285Y-34881429D01*
X47604856Y-35024286D01*
X47604856Y-35238571D01*
X47676285Y-35381429D01*
X47747713Y-35452857D01*
X47890571Y-35524286D01*
X48461999Y-35524286D01*
X46390571Y-36167143D02*
X46533428Y-36238571D01*
X46819142Y-36238571D01*
X46961999Y-36167143D01*
X47033428Y-36024286D01*
X47033428Y-35452857D01*
X46961999Y-35310000D01*
X46819142Y-35238571D01*
X46533428Y-35238571D01*
X46390571Y-35310000D01*
X46319142Y-35452857D01*
X46319142Y-35595714D01*
X47033428Y-35738571D01*
X45819142Y-35238571D02*
X45461999Y-36238571D01*
X45104857Y-35238571D01*
X44533428Y-36095714D02*
X44462000Y-36167143D01*
X44533428Y-36238571D01*
X44604857Y-36167143D01*
X44533428Y-36095714D01*
X44533428Y-36238571D01*
X44533428Y-35310000D02*
X44462000Y-35381429D01*
X44533428Y-35452857D01*
X44604857Y-35381429D01*
X44533428Y-35310000D01*
X44533428Y-35452857D01*
X41890571Y-36238571D02*
X42747714Y-36238571D01*
X42319142Y-36238571D02*
X42319142Y-34738571D01*
X42461999Y-34952857D01*
X42604857Y-35095714D01*
X42747714Y-35167143D01*
X55120285Y-19474571D02*
X55120285Y-17974571D01*
X54620285Y-19046000D01*
X54120285Y-17974571D01*
X54120285Y-19474571D01*
X52763142Y-19474571D02*
X52763142Y-18688857D01*
X52834571Y-18546000D01*
X52977428Y-18474571D01*
X53263142Y-18474571D01*
X53405999Y-18546000D01*
X52763142Y-19403143D02*
X52905999Y-19474571D01*
X53263142Y-19474571D01*
X53405999Y-19403143D01*
X53477428Y-19260286D01*
X53477428Y-19117429D01*
X53405999Y-18974571D01*
X53263142Y-18903143D01*
X52905999Y-18903143D01*
X52763142Y-18831714D01*
X51405999Y-19474571D02*
X51405999Y-17974571D01*
X51405999Y-19403143D02*
X51548856Y-19474571D01*
X51834570Y-19474571D01*
X51977428Y-19403143D01*
X52048856Y-19331714D01*
X52120285Y-19188857D01*
X52120285Y-18760286D01*
X52048856Y-18617429D01*
X51977428Y-18546000D01*
X51834570Y-18474571D01*
X51548856Y-18474571D01*
X51405999Y-18546000D01*
X50120285Y-19403143D02*
X50263142Y-19474571D01*
X50548856Y-19474571D01*
X50691713Y-19403143D01*
X50763142Y-19260286D01*
X50763142Y-18688857D01*
X50691713Y-18546000D01*
X50548856Y-18474571D01*
X50263142Y-18474571D01*
X50120285Y-18546000D01*
X50048856Y-18688857D01*
X50048856Y-18831714D01*
X50763142Y-18974571D01*
X47763142Y-18688857D02*
X47548856Y-18760286D01*
X47477428Y-18831714D01*
X47405999Y-18974571D01*
X47405999Y-19188857D01*
X47477428Y-19331714D01*
X47548856Y-19403143D01*
X47691714Y-19474571D01*
X48263142Y-19474571D01*
X48263142Y-17974571D01*
X47763142Y-17974571D01*
X47620285Y-18046000D01*
X47548856Y-18117429D01*
X47477428Y-18260286D01*
X47477428Y-18403143D01*
X47548856Y-18546000D01*
X47620285Y-18617429D01*
X47763142Y-18688857D01*
X48263142Y-18688857D01*
X46905999Y-18474571D02*
X46548856Y-19474571D01*
X46191714Y-18474571D02*
X46548856Y-19474571D01*
X46691714Y-19831714D01*
X46763142Y-19903143D01*
X46905999Y-19974571D01*
X45620285Y-19331714D02*
X45548857Y-19403143D01*
X45620285Y-19474571D01*
X45691714Y-19403143D01*
X45620285Y-19331714D01*
X45620285Y-19474571D01*
X45620285Y-18546000D02*
X45548857Y-18617429D01*
X45620285Y-18688857D01*
X45691714Y-18617429D01*
X45620285Y-18546000D01*
X45620285Y-18688857D01*
X43763142Y-18688857D02*
X43263142Y-18688857D01*
X43048856Y-19474571D02*
X43763142Y-19474571D01*
X43763142Y-17974571D01*
X43048856Y-17974571D01*
X42191713Y-19474571D02*
X42334571Y-19403143D01*
X42405999Y-19260286D01*
X42405999Y-17974571D01*
X41620285Y-19474571D02*
X41620285Y-18474571D01*
X41620285Y-17974571D02*
X41691714Y-18046000D01*
X41620285Y-18117429D01*
X41548857Y-18046000D01*
X41620285Y-17974571D01*
X41620285Y-18117429D01*
X40263142Y-19474571D02*
X40263142Y-18688857D01*
X40334571Y-18546000D01*
X40477428Y-18474571D01*
X40763142Y-18474571D01*
X40905999Y-18546000D01*
X40263142Y-19403143D02*
X40405999Y-19474571D01*
X40763142Y-19474571D01*
X40905999Y-19403143D01*
X40977428Y-19260286D01*
X40977428Y-19117429D01*
X40905999Y-18974571D01*
X40763142Y-18903143D01*
X40405999Y-18903143D01*
X40263142Y-18831714D01*
X39620285Y-19403143D02*
X39477428Y-19474571D01*
X39191713Y-19474571D01*
X39048856Y-19403143D01*
X38977428Y-19260286D01*
X38977428Y-19188857D01*
X39048856Y-19046000D01*
X39191713Y-18974571D01*
X39405999Y-18974571D01*
X39548856Y-18903143D01*
X39620285Y-18760286D01*
X39620285Y-18688857D01*
X39548856Y-18546000D01*
X39405999Y-18474571D01*
X39191713Y-18474571D01*
X39048856Y-18546000D01*
X37263142Y-19403143D02*
X37048856Y-19474571D01*
X36691713Y-19474571D01*
X36548856Y-19403143D01*
X36477427Y-19331714D01*
X36405999Y-19188857D01*
X36405999Y-19046000D01*
X36477427Y-18903143D01*
X36548856Y-18831714D01*
X36691713Y-18760286D01*
X36977427Y-18688857D01*
X37120285Y-18617429D01*
X37191713Y-18546000D01*
X37263142Y-18403143D01*
X37263142Y-18260286D01*
X37191713Y-18117429D01*
X37120285Y-18046000D01*
X36977427Y-17974571D01*
X36620285Y-17974571D01*
X36405999Y-18046000D01*
X35763142Y-18474571D02*
X35763142Y-19760286D01*
X35834571Y-19903143D01*
X35977428Y-19974571D01*
X36048856Y-19974571D01*
X35763142Y-17974571D02*
X35834571Y-18046000D01*
X35763142Y-18117429D01*
X35691714Y-18046000D01*
X35763142Y-17974571D01*
X35763142Y-18117429D01*
X34834570Y-19474571D02*
X34977428Y-19403143D01*
X35048856Y-19331714D01*
X35120285Y-19188857D01*
X35120285Y-18760286D01*
X35048856Y-18617429D01*
X34977428Y-18546000D01*
X34834570Y-18474571D01*
X34620285Y-18474571D01*
X34477428Y-18546000D01*
X34405999Y-18617429D01*
X34334570Y-18760286D01*
X34334570Y-19188857D01*
X34405999Y-19331714D01*
X34477428Y-19403143D01*
X34620285Y-19474571D01*
X34834570Y-19474571D01*
X34977428Y-17974571D02*
X34905999Y-18046000D01*
X34977428Y-18117429D01*
X35048856Y-18046000D01*
X34977428Y-17974571D01*
X34977428Y-18117429D01*
X34405999Y-17974571D02*
X34334570Y-18046000D01*
X34405999Y-18117429D01*
X34477428Y-18046000D01*
X34405999Y-17974571D01*
X34405999Y-18117429D01*
X33048856Y-18474571D02*
X33048856Y-19688857D01*
X33120285Y-19831714D01*
X33191713Y-19903143D01*
X33334570Y-19974571D01*
X33548856Y-19974571D01*
X33691713Y-19903143D01*
X33048856Y-19403143D02*
X33191713Y-19474571D01*
X33477427Y-19474571D01*
X33620285Y-19403143D01*
X33691713Y-19331714D01*
X33763142Y-19188857D01*
X33763142Y-18760286D01*
X33691713Y-18617429D01*
X33620285Y-18546000D01*
X33477427Y-18474571D01*
X33191713Y-18474571D01*
X33048856Y-18546000D01*
X32334570Y-19474571D02*
X32334570Y-18474571D01*
X32334570Y-18760286D02*
X32263142Y-18617429D01*
X32191713Y-18546000D01*
X32048856Y-18474571D01*
X31905999Y-18474571D01*
X30834571Y-19403143D02*
X30977428Y-19474571D01*
X31263142Y-19474571D01*
X31405999Y-19403143D01*
X31477428Y-19260286D01*
X31477428Y-18688857D01*
X31405999Y-18546000D01*
X31263142Y-18474571D01*
X30977428Y-18474571D01*
X30834571Y-18546000D01*
X30763142Y-18688857D01*
X30763142Y-18831714D01*
X31477428Y-18974571D01*
X29548857Y-19403143D02*
X29691714Y-19474571D01*
X29977428Y-19474571D01*
X30120285Y-19403143D01*
X30191714Y-19260286D01*
X30191714Y-18688857D01*
X30120285Y-18546000D01*
X29977428Y-18474571D01*
X29691714Y-18474571D01*
X29548857Y-18546000D01*
X29477428Y-18688857D01*
X29477428Y-18831714D01*
X30191714Y-18974571D01*
X28834571Y-18474571D02*
X28834571Y-19474571D01*
X28834571Y-18617429D02*
X28763143Y-18546000D01*
X28620285Y-18474571D01*
X28406000Y-18474571D01*
X28263143Y-18546000D01*
X28191714Y-18688857D01*
X28191714Y-19474571D01*
X47870857Y-62884857D02*
X47656571Y-62956286D01*
X47585143Y-63027714D01*
X47513714Y-63170571D01*
X47513714Y-63384857D01*
X47585143Y-63527714D01*
X47656571Y-63599143D01*
X47799429Y-63670571D01*
X48370857Y-63670571D01*
X48370857Y-62170571D01*
X47870857Y-62170571D01*
X47728000Y-62242000D01*
X47656571Y-62313429D01*
X47585143Y-62456286D01*
X47585143Y-62599143D01*
X47656571Y-62742000D01*
X47728000Y-62813429D01*
X47870857Y-62884857D01*
X48370857Y-62884857D01*
X46870857Y-63670571D02*
X46870857Y-62670571D01*
X46870857Y-62170571D02*
X46942286Y-62242000D01*
X46870857Y-62313429D01*
X46799429Y-62242000D01*
X46870857Y-62170571D01*
X46870857Y-62313429D01*
X46156571Y-63670571D02*
X46156571Y-62170571D01*
X45299428Y-63670571D02*
X45942285Y-62813429D01*
X45299428Y-62170571D02*
X46156571Y-63027714D01*
X44085143Y-63599143D02*
X44228000Y-63670571D01*
X44513714Y-63670571D01*
X44656571Y-63599143D01*
X44728000Y-63456286D01*
X44728000Y-62884857D01*
X44656571Y-62742000D01*
X44513714Y-62670571D01*
X44228000Y-62670571D01*
X44085143Y-62742000D01*
X44013714Y-62884857D01*
X44013714Y-63027714D01*
X44728000Y-63170571D01*
X47870857Y-37484857D02*
X47656571Y-37556286D01*
X47585143Y-37627714D01*
X47513714Y-37770571D01*
X47513714Y-37984857D01*
X47585143Y-38127714D01*
X47656571Y-38199143D01*
X47799429Y-38270571D01*
X48370857Y-38270571D01*
X48370857Y-36770571D01*
X47870857Y-36770571D01*
X47728000Y-36842000D01*
X47656571Y-36913429D01*
X47585143Y-37056286D01*
X47585143Y-37199143D01*
X47656571Y-37342000D01*
X47728000Y-37413429D01*
X47870857Y-37484857D01*
X48370857Y-37484857D01*
X46870857Y-38270571D02*
X46870857Y-37270571D01*
X46870857Y-36770571D02*
X46942286Y-36842000D01*
X46870857Y-36913429D01*
X46799429Y-36842000D01*
X46870857Y-36770571D01*
X46870857Y-36913429D01*
X46156571Y-38270571D02*
X46156571Y-36770571D01*
X45299428Y-38270571D02*
X45942285Y-37413429D01*
X45299428Y-36770571D02*
X46156571Y-37627714D01*
X44085143Y-38199143D02*
X44228000Y-38270571D01*
X44513714Y-38270571D01*
X44656571Y-38199143D01*
X44728000Y-38056286D01*
X44728000Y-37484857D01*
X44656571Y-37342000D01*
X44513714Y-37270571D01*
X44228000Y-37270571D01*
X44085143Y-37342000D01*
X44013714Y-37484857D01*
X44013714Y-37627714D01*
X44728000Y-37770571D01*
X29015143Y-44088857D02*
X28800857Y-44160286D01*
X28729429Y-44231714D01*
X28658000Y-44374571D01*
X28658000Y-44588857D01*
X28729429Y-44731714D01*
X28800857Y-44803143D01*
X28943715Y-44874571D01*
X29515143Y-44874571D01*
X29515143Y-43374571D01*
X29015143Y-43374571D01*
X28872286Y-43446000D01*
X28800857Y-43517429D01*
X28729429Y-43660286D01*
X28729429Y-43803143D01*
X28800857Y-43946000D01*
X28872286Y-44017429D01*
X29015143Y-44088857D01*
X29515143Y-44088857D01*
X27800857Y-44874571D02*
X27943715Y-44803143D01*
X28015143Y-44731714D01*
X28086572Y-44588857D01*
X28086572Y-44160286D01*
X28015143Y-44017429D01*
X27943715Y-43946000D01*
X27800857Y-43874571D01*
X27586572Y-43874571D01*
X27443715Y-43946000D01*
X27372286Y-44017429D01*
X27300857Y-44160286D01*
X27300857Y-44588857D01*
X27372286Y-44731714D01*
X27443715Y-44803143D01*
X27586572Y-44874571D01*
X27800857Y-44874571D01*
X26872286Y-43874571D02*
X26300857Y-43874571D01*
X26658000Y-43374571D02*
X26658000Y-44660286D01*
X26586572Y-44803143D01*
X26443714Y-44874571D01*
X26300857Y-44874571D01*
X26015143Y-43874571D02*
X25443714Y-43874571D01*
X25800857Y-43374571D02*
X25800857Y-44660286D01*
X25729429Y-44803143D01*
X25586571Y-44874571D01*
X25443714Y-44874571D01*
X24729428Y-44874571D02*
X24872286Y-44803143D01*
X24943714Y-44731714D01*
X25015143Y-44588857D01*
X25015143Y-44160286D01*
X24943714Y-44017429D01*
X24872286Y-43946000D01*
X24729428Y-43874571D01*
X24515143Y-43874571D01*
X24372286Y-43946000D01*
X24300857Y-44017429D01*
X24229428Y-44160286D01*
X24229428Y-44588857D01*
X24300857Y-44731714D01*
X24372286Y-44803143D01*
X24515143Y-44874571D01*
X24729428Y-44874571D01*
X23586571Y-44874571D02*
X23586571Y-43874571D01*
X23586571Y-44017429D02*
X23515143Y-43946000D01*
X23372285Y-43874571D01*
X23158000Y-43874571D01*
X23015143Y-43946000D01*
X22943714Y-44088857D01*
X22943714Y-44874571D01*
X22943714Y-44088857D02*
X22872285Y-43946000D01*
X22729428Y-43874571D01*
X22515143Y-43874571D01*
X22372285Y-43946000D01*
X22300857Y-44088857D01*
X22300857Y-44874571D01*
X23629714Y-36262571D02*
X22772571Y-36262571D01*
X23201142Y-37762571D02*
X23201142Y-36262571D01*
X22058285Y-37762571D02*
X22201143Y-37691143D01*
X22272571Y-37619714D01*
X22344000Y-37476857D01*
X22344000Y-37048286D01*
X22272571Y-36905429D01*
X22201143Y-36834000D01*
X22058285Y-36762571D01*
X21844000Y-36762571D01*
X21701143Y-36834000D01*
X21629714Y-36905429D01*
X21558285Y-37048286D01*
X21558285Y-37476857D01*
X21629714Y-37619714D01*
X21701143Y-37691143D01*
X21844000Y-37762571D01*
X22058285Y-37762571D01*
X20915428Y-36762571D02*
X20915428Y-38262571D01*
X20915428Y-36834000D02*
X20772571Y-36762571D01*
X20486857Y-36762571D01*
X20344000Y-36834000D01*
X20272571Y-36905429D01*
X20201142Y-37048286D01*
X20201142Y-37476857D01*
X20272571Y-37619714D01*
X20344000Y-37691143D01*
X20486857Y-37762571D01*
X20772571Y-37762571D01*
X20915428Y-37691143D01*
M02*
