G04 #@! TF.FileFunction,Soldermask,Top*
%FSLAX46Y46*%
G04 Gerber Fmt 4.6, Leading zero omitted, Abs format (unit mm)*
G04 Created by KiCad (PCBNEW 4.0.6) date 01/19/18 19:39:35*
%MOMM*%
%LPD*%
G01*
G04 APERTURE LIST*
%ADD10C,0.020000*%
%ADD11C,2.600000*%
%ADD12C,0.900000*%
%ADD13C,2.000200*%
%ADD14C,4.380180*%
%ADD15C,3.000000*%
%ADD16C,2.099260*%
%ADD17R,1.900000X1.650000*%
%ADD18R,2.000000X2.000000*%
%ADD19O,2.000000X2.000000*%
%ADD20R,1.900000X1.700000*%
%ADD21R,2.100000X2.100000*%
%ADD22O,2.100000X2.100000*%
%ADD23R,0.900000X2.200000*%
%ADD24R,2.900000X4.600000*%
G04 APERTURE END LIST*
D10*
D11*
X17780000Y-45720000D03*
X53340000Y-45720000D03*
X53340000Y-60960000D03*
X17780000Y-60960000D03*
D12*
X44450000Y-39540000D03*
X44450000Y-41740000D03*
X45250000Y-39540000D03*
X43650000Y-39540000D03*
X43650000Y-41740000D03*
X45250000Y-41740000D03*
D13*
X26035000Y-33020000D03*
X28575000Y-33020000D03*
D14*
X27305000Y-27940000D03*
D15*
X29845000Y-22860000D03*
X23495000Y-25400000D03*
D16*
X22225000Y-27940000D03*
X32385000Y-27940000D03*
D17*
X34310000Y-54610000D03*
X36810000Y-54610000D03*
D18*
X22860000Y-63500000D03*
D19*
X22860000Y-55880000D03*
D18*
X27940000Y-63500000D03*
D19*
X27940000Y-55880000D03*
D13*
X42703800Y-33020000D03*
X45243800Y-33020000D03*
D20*
X44370000Y-52070000D03*
X47070000Y-52070000D03*
X44370000Y-46990000D03*
X47070000Y-46990000D03*
D14*
X43973800Y-27940000D03*
D15*
X46513800Y-22860000D03*
X40163800Y-25400000D03*
D16*
X38893800Y-27940000D03*
X49053800Y-27940000D03*
D18*
X31750000Y-44450000D03*
D19*
X39370000Y-52070000D03*
X31750000Y-46990000D03*
X39370000Y-49530000D03*
X31750000Y-49530000D03*
X39370000Y-46990000D03*
X31750000Y-52070000D03*
X39370000Y-44450000D03*
D21*
X54610000Y-55880000D03*
D22*
X54610000Y-53340000D03*
X54610000Y-50800000D03*
D21*
X16510000Y-55880000D03*
D22*
X16510000Y-53340000D03*
X16510000Y-50800000D03*
D21*
X54610000Y-30480000D03*
D22*
X54610000Y-27940000D03*
X54610000Y-25400000D03*
D21*
X16510000Y-30480000D03*
D22*
X16510000Y-27940000D03*
X16510000Y-25400000D03*
D20*
X20875000Y-19050000D03*
X23575000Y-19050000D03*
X37385000Y-19050000D03*
X40085000Y-19050000D03*
X31035000Y-36830000D03*
X33735000Y-36830000D03*
X47545000Y-36830000D03*
X50245000Y-36830000D03*
D12*
X26670000Y-39540000D03*
X26670000Y-41740000D03*
X27470000Y-39540000D03*
X25870000Y-39540000D03*
X25870000Y-41740000D03*
X27470000Y-41740000D03*
D23*
X33960000Y-59690000D03*
X34760000Y-59690000D03*
X35560000Y-59690000D03*
X36360000Y-59690000D03*
X37160000Y-59690000D03*
D24*
X31360000Y-62090000D03*
X39760000Y-62090000D03*
M02*
